solid CATIA STL
  facet normal  1.000000e+000  0.000000e+000  0.000000e+000
    outer loop
      vertex  1.200000e+001 -5.422904e+000  7.922904e+000
      vertex  1.200000e+001 -4.577096e+000  7.922904e+000
      vertex  1.200000e+001 -5.000000e+000  8.098076e+000
    endloop
  endfacet
  facet normal  1.000000e+000  -0.000000e+000  0.000000e+000
    outer loop
      vertex  1.200000e+001 -4.577096e+000  7.922904e+000
      vertex  1.200000e+001 -5.422904e+000  7.922904e+000
      vertex  1.200000e+001 -4.401924e+000  7.500000e+000
    endloop
  endfacet
  facet normal  1.000000e+000  0.000000e+000  0.000000e+000
    outer loop
      vertex  1.200000e+001 -4.401924e+000  7.500000e+000
      vertex  1.200000e+001 -5.422904e+000  7.922904e+000
      vertex  1.200000e+001 -5.598076e+000  7.500000e+000
    endloop
  endfacet
  facet normal  1.000000e+000  -0.000000e+000  0.000000e+000
    outer loop
      vertex  1.200000e+001 -4.401924e+000  7.500000e+000
      vertex  1.200000e+001 -5.598076e+000  7.500000e+000
      vertex  1.200000e+001 -4.577096e+000  7.077096e+000
    endloop
  endfacet
  facet normal  1.000000e+000  0.000000e+000  0.000000e+000
    outer loop
      vertex  1.200000e+001 -4.577096e+000  7.077096e+000
      vertex  1.200000e+001 -5.598076e+000  7.500000e+000
      vertex  1.200000e+001 -5.422904e+000  7.077096e+000
    endloop
  endfacet
  facet normal  1.000000e+000  0.000000e+000  0.000000e+000
    outer loop
      vertex  1.200000e+001 -4.577096e+000  7.077096e+000
      vertex  1.200000e+001 -5.422904e+000  7.077096e+000
      vertex  1.200000e+001 -5.000000e+000  6.901924e+000
    endloop
  endfacet
  facet normal  0.000000e+000 -9.238793e-001  3.826837e-001
    outer loop
      vertex  2.000000e+000 -6.000000e+000  7.500000e+000
      vertex  1.050000e+001 -6.000000e+000  7.500000e+000
      vertex  2.000000e+000 -5.707107e+000  8.207107e+000
    endloop
  endfacet
  facet normal  0.000000e+000 -9.238793e-001  3.826837e-001
    outer loop
      vertex  2.000000e+000 -5.707107e+000  8.207107e+000
      vertex  1.050000e+001 -6.000000e+000  7.500000e+000
      vertex  1.050000e+001 -5.707107e+000  8.207107e+000
    endloop
  endfacet
  facet normal  0.000000e+000 -3.826837e-001  9.238793e-001
    outer loop
      vertex  2.000000e+000 -5.707107e+000  8.207107e+000
      vertex  1.050000e+001 -5.707107e+000  8.207107e+000
      vertex  2.000000e+000 -5.000000e+000  8.500000e+000
    endloop
  endfacet
  facet normal  0.000000e+000 -3.826837e-001  9.238793e-001
    outer loop
      vertex  2.000000e+000 -5.000000e+000  8.500000e+000
      vertex  1.050000e+001 -5.707107e+000  8.207107e+000
      vertex  1.050000e+001 -5.000000e+000  8.500000e+000
    endloop
  endfacet
  facet normal  0.000000e+000  3.826837e-001  9.238793e-001
    outer loop
      vertex  2.000000e+000 -5.000000e+000  8.500000e+000
      vertex  1.050000e+001 -5.000000e+000  8.500000e+000
      vertex  2.000000e+000 -4.292893e+000  8.207107e+000
    endloop
  endfacet
  facet normal  -0.000000e+000  3.826837e-001  9.238793e-001
    outer loop
      vertex  2.000000e+000 -4.292893e+000  8.207107e+000
      vertex  1.050000e+001 -5.000000e+000  8.500000e+000
      vertex  1.050000e+001 -4.292893e+000  8.207107e+000
    endloop
  endfacet
  facet normal  0.000000e+000  9.238793e-001  3.826837e-001
    outer loop
      vertex  2.000000e+000 -4.292893e+000  8.207107e+000
      vertex  1.050000e+001 -4.292893e+000  8.207107e+000
      vertex  2.000000e+000 -4.000000e+000  7.500000e+000
    endloop
  endfacet
  facet normal  -0.000000e+000  9.238793e-001  3.826837e-001
    outer loop
      vertex  2.000000e+000 -4.000000e+000  7.500000e+000
      vertex  1.050000e+001 -4.292893e+000  8.207107e+000
      vertex  1.050000e+001 -4.000000e+000  7.500000e+000
    endloop
  endfacet
  facet normal  0.000000e+000  9.238793e-001 -3.826837e-001
    outer loop
      vertex  2.000000e+000 -4.000000e+000  7.500000e+000
      vertex  1.050000e+001 -4.000000e+000  7.500000e+000
      vertex  2.000000e+000 -4.292893e+000  6.792893e+000
    endloop
  endfacet
  facet normal  0.000000e+000  9.238793e-001 -3.826837e-001
    outer loop
      vertex  2.000000e+000 -4.292893e+000  6.792893e+000
      vertex  1.050000e+001 -4.000000e+000  7.500000e+000
      vertex  1.050000e+001 -4.292893e+000  6.792893e+000
    endloop
  endfacet
  facet normal  0.000000e+000  3.826837e-001 -9.238793e-001
    outer loop
      vertex  2.000000e+000 -4.292893e+000  6.792893e+000
      vertex  1.050000e+001 -4.292893e+000  6.792893e+000
      vertex  2.000000e+000 -5.000000e+000  6.500000e+000
    endloop
  endfacet
  facet normal  0.000000e+000  3.826837e-001 -9.238793e-001
    outer loop
      vertex  2.000000e+000 -5.000000e+000  6.500000e+000
      vertex  1.050000e+001 -4.292893e+000  6.792893e+000
      vertex  1.050000e+001 -5.000000e+000  6.500000e+000
    endloop
  endfacet
  facet normal  -0.000000e+000 -3.826837e-001 -9.238793e-001
    outer loop
      vertex  2.000000e+000 -5.000000e+000  6.500000e+000
      vertex  1.050000e+001 -5.000000e+000  6.500000e+000
      vertex  2.000000e+000 -5.707107e+000  6.792893e+000
    endloop
  endfacet
  facet normal  0.000000e+000 -3.826837e-001 -9.238793e-001
    outer loop
      vertex  2.000000e+000 -5.707107e+000  6.792893e+000
      vertex  1.050000e+001 -5.000000e+000  6.500000e+000
      vertex  1.050000e+001 -5.707107e+000  6.792893e+000
    endloop
  endfacet
  facet normal  -0.000000e+000 -9.238793e-001 -3.826837e-001
    outer loop
      vertex  2.000000e+000 -5.707107e+000  6.792893e+000
      vertex  1.050000e+001 -5.707107e+000  6.792893e+000
      vertex  2.000000e+000 -6.000000e+000  7.500000e+000
    endloop
  endfacet
  facet normal  0.000000e+000 -9.238793e-001 -3.826837e-001
    outer loop
      vertex  2.000000e+000 -6.000000e+000  7.500000e+000
      vertex  1.050000e+001 -5.707107e+000  6.792893e+000
      vertex  1.050000e+001 -6.000000e+000  7.500000e+000
    endloop
  endfacet
  facet normal  2.402993e-001 -3.714707e-001 -8.968087e-001
    outer loop
      vertex  1.050000e+001 -5.000000e+000  6.500000e+000
      vertex  1.200000e+001 -5.422904e+000  7.077096e+000
      vertex  1.050000e+001 -5.707107e+000  6.792893e+000
    endloop
  endfacet
  facet normal  2.402993e-001 -8.968085e-001 -3.714711e-001
    outer loop
      vertex  1.050000e+001 -5.707107e+000  6.792893e+000
      vertex  1.200000e+001 -5.422904e+000  7.077096e+000
      vertex  1.200000e+001 -5.598076e+000  7.500000e+000
    endloop
  endfacet
  facet normal  2.402991e-001 -8.968087e-001 -3.714707e-001
    outer loop
      vertex  1.050000e+001 -5.707107e+000  6.792893e+000
      vertex  1.200000e+001 -5.598076e+000  7.500000e+000
      vertex  1.050000e+001 -6.000000e+000  7.500000e+000
    endloop
  endfacet
  facet normal  2.402991e-001 -3.714712e-001 -8.968086e-001
    outer loop
      vertex  1.200000e+001 -5.422904e+000  7.077096e+000
      vertex  1.050000e+001 -5.000000e+000  6.500000e+000
      vertex  1.200000e+001 -5.000000e+000  6.901924e+000
    endloop
  endfacet
  facet normal  2.402991e-001  3.714707e-001 -8.968087e-001
    outer loop
      vertex  1.200000e+001 -5.000000e+000  6.901924e+000
      vertex  1.050000e+001 -5.000000e+000  6.500000e+000
      vertex  1.050000e+001 -4.292893e+000  6.792893e+000
    endloop
  endfacet
  facet normal  2.402989e-001  3.714703e-001 -8.968090e-001
    outer loop
      vertex  1.200000e+001 -5.000000e+000  6.901924e+000
      vertex  1.050000e+001 -4.292893e+000  6.792893e+000
      vertex  1.200000e+001 -4.577096e+000  7.077096e+000
    endloop
  endfacet
  facet normal  2.402991e-001  8.968087e-001 -3.714707e-001
    outer loop
      vertex  1.200000e+001 -4.577096e+000  7.077096e+000
      vertex  1.050000e+001 -4.292893e+000  6.792893e+000
      vertex  1.050000e+001 -4.000000e+000  7.500000e+000
    endloop
  endfacet
  facet normal  2.402991e-001  8.968087e-001 -3.714708e-001
    outer loop
      vertex  1.200000e+001 -4.577096e+000  7.077096e+000
      vertex  1.050000e+001 -4.000000e+000  7.500000e+000
      vertex  1.200000e+001 -4.401924e+000  7.500000e+000
    endloop
  endfacet
  facet normal  2.402990e-001  3.714707e-001  8.968087e-001
    outer loop
      vertex  1.050000e+001 -5.000000e+000  8.500000e+000
      vertex  1.200000e+001 -4.577096e+000  7.922904e+000
      vertex  1.050000e+001 -4.292893e+000  8.207107e+000
    endloop
  endfacet
  facet normal  2.402992e-001  8.968087e-001  3.714708e-001
    outer loop
      vertex  1.050000e+001 -4.292893e+000  8.207107e+000
      vertex  1.200000e+001 -4.577096e+000  7.922904e+000
      vertex  1.200000e+001 -4.401924e+000  7.500000e+000
    endloop
  endfacet
  facet normal  2.402991e-001  8.968087e-001  3.714707e-001
    outer loop
      vertex  1.050000e+001 -4.292893e+000  8.207107e+000
      vertex  1.200000e+001 -4.401924e+000  7.500000e+000
      vertex  1.050000e+001 -4.000000e+000  7.500000e+000
    endloop
  endfacet
  facet normal  2.402995e-001  3.714694e-001  8.968092e-001
    outer loop
      vertex  1.200000e+001 -4.577096e+000  7.922904e+000
      vertex  1.050000e+001 -5.000000e+000  8.500000e+000
      vertex  1.200000e+001 -5.000000e+000  8.098076e+000
    endloop
  endfacet
  facet normal  2.402994e-001 -3.714707e-001  8.968087e-001
    outer loop
      vertex  1.200000e+001 -5.000000e+000  8.098076e+000
      vertex  1.050000e+001 -5.000000e+000  8.500000e+000
      vertex  1.050000e+001 -5.707107e+000  8.207107e+000
    endloop
  endfacet
  facet normal  2.402991e-001 -3.714699e-001  8.968090e-001
    outer loop
      vertex  1.200000e+001 -5.000000e+000  8.098076e+000
      vertex  1.050000e+001 -5.707107e+000  8.207107e+000
      vertex  1.200000e+001 -5.422904e+000  7.922904e+000
    endloop
  endfacet
  facet normal  2.402990e-001 -8.968087e-001  3.714707e-001
    outer loop
      vertex  1.200000e+001 -5.422904e+000  7.922904e+000
      vertex  1.050000e+001 -5.707107e+000  8.207107e+000
      vertex  1.050000e+001 -6.000000e+000  7.500000e+000
    endloop
  endfacet
  facet normal  2.402991e-001 -8.968089e-001  3.714703e-001
    outer loop
      vertex  1.200000e+001 -5.422904e+000  7.922904e+000
      vertex  1.050000e+001 -6.000000e+000  7.500000e+000
      vertex  1.200000e+001 -5.598076e+000  7.500000e+000
    endloop
  endfacet
  facet normal  1.000000e+000  0.000000e+000  0.000000e+000
    outer loop
      vertex  1.200000e+001  4.577096e+000  7.922904e+000
      vertex  1.200000e+001  5.422904e+000  7.922904e+000
      vertex  1.200000e+001  5.000000e+000  8.098076e+000
    endloop
  endfacet
  facet normal  1.000000e+000  0.000000e+000  0.000000e+000
    outer loop
      vertex  1.200000e+001  5.422904e+000  7.922904e+000
      vertex  1.200000e+001  4.577096e+000  7.922904e+000
      vertex  1.200000e+001  5.598076e+000  7.500000e+000
    endloop
  endfacet
  facet normal  1.000000e+000  0.000000e+000  0.000000e+000
    outer loop
      vertex  1.200000e+001  5.598076e+000  7.500000e+000
      vertex  1.200000e+001  4.577096e+000  7.922904e+000
      vertex  1.200000e+001  4.401924e+000  7.500000e+000
    endloop
  endfacet
  facet normal  1.000000e+000  -0.000000e+000  0.000000e+000
    outer loop
      vertex  1.200000e+001  5.598076e+000  7.500000e+000
      vertex  1.200000e+001  4.401924e+000  7.500000e+000
      vertex  1.200000e+001  5.422904e+000  7.077096e+000
    endloop
  endfacet
  facet normal  1.000000e+000  0.000000e+000  0.000000e+000
    outer loop
      vertex  1.200000e+001  5.422904e+000  7.077096e+000
      vertex  1.200000e+001  4.401924e+000  7.500000e+000
      vertex  1.200000e+001  4.577096e+000  7.077096e+000
    endloop
  endfacet
  facet normal  1.000000e+000  -0.000000e+000  0.000000e+000
    outer loop
      vertex  1.200000e+001  5.422904e+000  7.077096e+000
      vertex  1.200000e+001  4.577096e+000  7.077096e+000
      vertex  1.200000e+001  5.000000e+000  6.901924e+000
    endloop
  endfacet
  facet normal  0.000000e+000  9.238793e-001 -3.826837e-001
    outer loop
      vertex  2.000000e+000  6.000000e+000  7.500000e+000
      vertex  1.050000e+001  6.000000e+000  7.500000e+000
      vertex  2.000000e+000  5.707107e+000  6.792893e+000
    endloop
  endfacet
  facet normal  0.000000e+000  9.238793e-001 -3.826837e-001
    outer loop
      vertex  2.000000e+000  5.707107e+000  6.792893e+000
      vertex  1.050000e+001  6.000000e+000  7.500000e+000
      vertex  1.050000e+001  5.707107e+000  6.792893e+000
    endloop
  endfacet
  facet normal  0.000000e+000  3.826837e-001 -9.238793e-001
    outer loop
      vertex  2.000000e+000  5.707107e+000  6.792893e+000
      vertex  1.050000e+001  5.707107e+000  6.792893e+000
      vertex  2.000000e+000  5.000000e+000  6.500000e+000
    endloop
  endfacet
  facet normal  0.000000e+000  3.826837e-001 -9.238793e-001
    outer loop
      vertex  2.000000e+000  5.000000e+000  6.500000e+000
      vertex  1.050000e+001  5.707107e+000  6.792893e+000
      vertex  1.050000e+001  5.000000e+000  6.500000e+000
    endloop
  endfacet
  facet normal  -0.000000e+000 -3.826837e-001 -9.238793e-001
    outer loop
      vertex  2.000000e+000  5.000000e+000  6.500000e+000
      vertex  1.050000e+001  5.000000e+000  6.500000e+000
      vertex  2.000000e+000  4.292893e+000  6.792893e+000
    endloop
  endfacet
  facet normal  0.000000e+000 -3.826837e-001 -9.238793e-001
    outer loop
      vertex  2.000000e+000  4.292893e+000  6.792893e+000
      vertex  1.050000e+001  5.000000e+000  6.500000e+000
      vertex  1.050000e+001  4.292893e+000  6.792893e+000
    endloop
  endfacet
  facet normal  -0.000000e+000 -9.238793e-001 -3.826837e-001
    outer loop
      vertex  2.000000e+000  4.292893e+000  6.792893e+000
      vertex  1.050000e+001  4.292893e+000  6.792893e+000
      vertex  2.000000e+000  4.000000e+000  7.500000e+000
    endloop
  endfacet
  facet normal  0.000000e+000 -9.238793e-001 -3.826837e-001
    outer loop
      vertex  2.000000e+000  4.000000e+000  7.500000e+000
      vertex  1.050000e+001  4.292893e+000  6.792893e+000
      vertex  1.050000e+001  4.000000e+000  7.500000e+000
    endloop
  endfacet
  facet normal  0.000000e+000 -9.238793e-001  3.826837e-001
    outer loop
      vertex  2.000000e+000  4.000000e+000  7.500000e+000
      vertex  1.050000e+001  4.000000e+000  7.500000e+000
      vertex  2.000000e+000  4.292893e+000  8.207107e+000
    endloop
  endfacet
  facet normal  0.000000e+000 -9.238793e-001  3.826837e-001
    outer loop
      vertex  2.000000e+000  4.292893e+000  8.207107e+000
      vertex  1.050000e+001  4.000000e+000  7.500000e+000
      vertex  1.050000e+001  4.292893e+000  8.207107e+000
    endloop
  endfacet
  facet normal  0.000000e+000 -3.826837e-001  9.238793e-001
    outer loop
      vertex  2.000000e+000  4.292893e+000  8.207107e+000
      vertex  1.050000e+001  4.292893e+000  8.207107e+000
      vertex  2.000000e+000  5.000000e+000  8.500000e+000
    endloop
  endfacet
  facet normal  0.000000e+000 -3.826837e-001  9.238793e-001
    outer loop
      vertex  2.000000e+000  5.000000e+000  8.500000e+000
      vertex  1.050000e+001  4.292893e+000  8.207107e+000
      vertex  1.050000e+001  5.000000e+000  8.500000e+000
    endloop
  endfacet
  facet normal  0.000000e+000  3.826837e-001  9.238793e-001
    outer loop
      vertex  2.000000e+000  5.000000e+000  8.500000e+000
      vertex  1.050000e+001  5.000000e+000  8.500000e+000
      vertex  2.000000e+000  5.707107e+000  8.207107e+000
    endloop
  endfacet
  facet normal  -0.000000e+000  3.826837e-001  9.238793e-001
    outer loop
      vertex  2.000000e+000  5.707107e+000  8.207107e+000
      vertex  1.050000e+001  5.000000e+000  8.500000e+000
      vertex  1.050000e+001  5.707107e+000  8.207107e+000
    endloop
  endfacet
  facet normal  0.000000e+000  9.238793e-001  3.826837e-001
    outer loop
      vertex  2.000000e+000  5.707107e+000  8.207107e+000
      vertex  1.050000e+001  5.707107e+000  8.207107e+000
      vertex  2.000000e+000  6.000000e+000  7.500000e+000
    endloop
  endfacet
  facet normal  -0.000000e+000  9.238793e-001  3.826837e-001
    outer loop
      vertex  2.000000e+000  6.000000e+000  7.500000e+000
      vertex  1.050000e+001  5.707107e+000  8.207107e+000
      vertex  1.050000e+001  6.000000e+000  7.500000e+000
    endloop
  endfacet
  facet normal  2.402993e-001  3.714707e-001  8.968087e-001
    outer loop
      vertex  1.050000e+001  5.000000e+000  8.500000e+000
      vertex  1.200000e+001  5.422904e+000  7.922904e+000
      vertex  1.050000e+001  5.707107e+000  8.207107e+000
    endloop
  endfacet
  facet normal  2.402993e-001  8.968085e-001  3.714711e-001
    outer loop
      vertex  1.050000e+001  5.707107e+000  8.207107e+000
      vertex  1.200000e+001  5.422904e+000  7.922904e+000
      vertex  1.200000e+001  5.598076e+000  7.500000e+000
    endloop
  endfacet
  facet normal  2.402991e-001  8.968087e-001  3.714707e-001
    outer loop
      vertex  1.050000e+001  5.707107e+000  8.207107e+000
      vertex  1.200000e+001  5.598076e+000  7.500000e+000
      vertex  1.050000e+001  6.000000e+000  7.500000e+000
    endloop
  endfacet
  facet normal  2.402994e-001  3.714703e-001  8.968088e-001
    outer loop
      vertex  1.200000e+001  5.422904e+000  7.922904e+000
      vertex  1.050000e+001  5.000000e+000  8.500000e+000
      vertex  1.200000e+001  5.000000e+000  8.098076e+000
    endloop
  endfacet
  facet normal  2.402994e-001 -3.714707e-001  8.968087e-001
    outer loop
      vertex  1.200000e+001  5.000000e+000  8.098076e+000
      vertex  1.050000e+001  5.000000e+000  8.500000e+000
      vertex  1.050000e+001  4.292893e+000  8.207107e+000
    endloop
  endfacet
  facet normal  2.402989e-001 -3.714695e-001  8.968093e-001
    outer loop
      vertex  1.200000e+001  5.000000e+000  8.098076e+000
      vertex  1.050000e+001  4.292893e+000  8.207107e+000
      vertex  1.200000e+001  4.577096e+000  7.922904e+000
    endloop
  endfacet
  facet normal  2.402991e-001 -8.968087e-001  3.714707e-001
    outer loop
      vertex  1.200000e+001  4.577096e+000  7.922904e+000
      vertex  1.050000e+001  4.292893e+000  8.207107e+000
      vertex  1.050000e+001  4.000000e+000  7.500000e+000
    endloop
  endfacet
  facet normal  2.402991e-001 -8.968087e-001  3.714708e-001
    outer loop
      vertex  1.200000e+001  4.577096e+000  7.922904e+000
      vertex  1.050000e+001  4.000000e+000  7.500000e+000
      vertex  1.200000e+001  4.401924e+000  7.500000e+000
    endloop
  endfacet
  facet normal  2.402990e-001 -3.714707e-001 -8.968087e-001
    outer loop
      vertex  1.050000e+001  5.000000e+000  6.500000e+000
      vertex  1.200000e+001  4.577096e+000  7.077096e+000
      vertex  1.050000e+001  4.292893e+000  6.792893e+000
    endloop
  endfacet
  facet normal  2.402992e-001 -8.968087e-001 -3.714708e-001
    outer loop
      vertex  1.050000e+001  4.292893e+000  6.792893e+000
      vertex  1.200000e+001  4.577096e+000  7.077096e+000
      vertex  1.200000e+001  4.401924e+000  7.500000e+000
    endloop
  endfacet
  facet normal  2.402991e-001 -8.968087e-001 -3.714707e-001
    outer loop
      vertex  1.050000e+001  4.292893e+000  6.792893e+000
      vertex  1.200000e+001  4.401924e+000  7.500000e+000
      vertex  1.050000e+001  4.000000e+000  7.500000e+000
    endloop
  endfacet
  facet normal  2.402991e-001 -3.714703e-001 -8.968089e-001
    outer loop
      vertex  1.200000e+001  4.577096e+000  7.077096e+000
      vertex  1.050000e+001  5.000000e+000  6.500000e+000
      vertex  1.200000e+001  5.000000e+000  6.901924e+000
    endloop
  endfacet
  facet normal  2.402991e-001  3.714707e-001 -8.968087e-001
    outer loop
      vertex  1.200000e+001  5.000000e+000  6.901924e+000
      vertex  1.050000e+001  5.000000e+000  6.500000e+000
      vertex  1.050000e+001  5.707107e+000  6.792893e+000
    endloop
  endfacet
  facet normal  2.402992e-001  3.714708e-001 -8.968087e-001
    outer loop
      vertex  1.200000e+001  5.000000e+000  6.901924e+000
      vertex  1.050000e+001  5.707107e+000  6.792893e+000
      vertex  1.200000e+001  5.422904e+000  7.077096e+000
    endloop
  endfacet
  facet normal  2.402990e-001  8.968087e-001 -3.714707e-001
    outer loop
      vertex  1.200000e+001  5.422904e+000  7.077096e+000
      vertex  1.050000e+001  5.707107e+000  6.792893e+000
      vertex  1.050000e+001  6.000000e+000  7.500000e+000
    endloop
  endfacet
  facet normal  2.402991e-001  8.968089e-001 -3.714703e-001
    outer loop
      vertex  1.200000e+001  5.422904e+000  7.077096e+000
      vertex  1.050000e+001  6.000000e+000  7.500000e+000
      vertex  1.200000e+001  5.598076e+000  7.500000e+000
    endloop
  endfacet
  facet normal  9.659258e-001  2.588190e-001  0.000000e+000
    outer loop
      vertex -5.500000e+000  2.664535e-015  0.000000e+000
      vertex -4.763140e+000 -2.750000e+000  2.000000e+000
      vertex -4.763140e+000 -2.750000e+000  0.000000e+000
    endloop
  endfacet
  facet normal  7.071068e-001  7.071068e-001  -0.000000e+000
    outer loop
      vertex -4.763140e+000 -2.750000e+000  0.000000e+000
      vertex -4.763140e+000 -2.750000e+000  2.000000e+000
      vertex -2.750000e+000 -4.763140e+000  2.000000e+000
    endloop
  endfacet
  facet normal  7.071068e-001  7.071068e-001  0.000000e+000
    outer loop
      vertex -4.763140e+000 -2.750000e+000  0.000000e+000
      vertex -2.750000e+000 -4.763140e+000  2.000000e+000
      vertex -2.750000e+000 -4.763140e+000  0.000000e+000
    endloop
  endfacet
  facet normal  2.588190e-001  9.659258e-001  -0.000000e+000
    outer loop
      vertex -2.750000e+000 -4.763140e+000  0.000000e+000
      vertex -2.750000e+000 -4.763140e+000  2.000000e+000
      vertex  0.000000e+000 -5.500000e+000  2.000000e+000
    endloop
  endfacet
  facet normal  2.588190e-001  9.659258e-001  0.000000e+000
    outer loop
      vertex -2.750000e+000 -4.763140e+000  0.000000e+000
      vertex  0.000000e+000 -5.500000e+000  2.000000e+000
      vertex  0.000000e+000 -5.500000e+000  8.881784e-016
    endloop
  endfacet
  facet normal  9.659258e-001  2.588190e-001 -3.745114e-016
    outer loop
      vertex -4.763140e+000 -2.750000e+000  2.000000e+000
      vertex -5.500000e+000  2.664535e-015  0.000000e+000
      vertex -5.500000e+000  5.558537e-015  2.000000e+000
    endloop
  endfacet
  facet normal  9.659258e-001 -2.588190e-001  3.745114e-016
    outer loop
      vertex -5.500000e+000  5.558537e-015  2.000000e+000
      vertex -5.500000e+000  2.664535e-015  0.000000e+000
      vertex -4.763140e+000  2.750000e+000  0.000000e+000
    endloop
  endfacet
  facet normal  9.659258e-001 -2.588190e-001  0.000000e+000
    outer loop
      vertex -5.500000e+000  5.558537e-015  2.000000e+000
      vertex -4.763140e+000  2.750000e+000  0.000000e+000
      vertex -4.763140e+000  2.750000e+000  2.000000e+000
    endloop
  endfacet
  facet normal  7.071068e-001 -7.071068e-001  0.000000e+000
    outer loop
      vertex -4.763140e+000  2.750000e+000  2.000000e+000
      vertex -4.763140e+000  2.750000e+000  0.000000e+000
      vertex -2.750000e+000  4.763140e+000  0.000000e+000
    endloop
  endfacet
  facet normal  7.071068e-001 -7.071068e-001  0.000000e+000
    outer loop
      vertex -4.763140e+000  2.750000e+000  2.000000e+000
      vertex -2.750000e+000  4.763140e+000  0.000000e+000
      vertex -2.750000e+000  4.763140e+000  2.000000e+000
    endloop
  endfacet
  facet normal  2.588190e-001 -9.659258e-001  0.000000e+000
    outer loop
      vertex -2.750000e+000  4.763140e+000  2.000000e+000
      vertex -2.750000e+000  4.763140e+000  0.000000e+000
      vertex  0.000000e+000  5.500000e+000  0.000000e+000
    endloop
  endfacet
  facet normal  2.588190e-001 -9.659258e-001  0.000000e+000
    outer loop
      vertex -2.750000e+000  4.763140e+000  2.000000e+000
      vertex  0.000000e+000  5.500000e+000  0.000000e+000
      vertex  0.000000e+000  5.500000e+000  2.000000e+000
    endloop
  endfacet
  facet normal  0.000000e+000  0.000000e+000  1.000000e+000
    outer loop
      vertex -5.500000e+000  5.558537e-015  2.000000e+000
      vertex -4.763140e+000  2.750000e+000  2.000000e+000
      vertex -5.000000e+000  5.350000e+000  2.000000e+000
    endloop
  endfacet
  facet normal  0.000000e+000  -0.000000e+000  1.000000e+000
    outer loop
      vertex -5.000000e+000  5.350000e+000  2.000000e+000
      vertex -4.763140e+000  2.750000e+000  2.000000e+000
      vertex -2.750000e+000  4.763140e+000  2.000000e+000
    endloop
  endfacet
  facet normal  0.000000e+000  0.000000e+000  1.000000e+000
    outer loop
      vertex  0.000000e+000  5.500000e+000  2.000000e+000
      vertex  0.000000e+000  1.000000e+001  2.000000e+000
      vertex -3.833274e+000  8.166726e+000  2.000000e+000
    endloop
  endfacet
  facet normal  0.000000e+000  0.000000e+000  9.999999e-001
    outer loop
      vertex  0.000000e+000  5.500000e+000  2.000000e+000
      vertex -3.833274e+000  8.166726e+000  2.000000e+000
      vertex -3.350000e+000  7.000000e+000  2.000000e+000
    endloop
  endfacet
  facet normal  0.000000e+000  0.000000e+000  1.000000e+000
    outer loop
      vertex  0.000000e+000  5.500000e+000  2.000000e+000
      vertex -3.350000e+000  7.000000e+000  2.000000e+000
      vertex -3.833274e+000  5.833274e+000  2.000000e+000
    endloop
  endfacet
  facet normal  0.000000e+000  0.000000e+000  1.000000e+000
    outer loop
      vertex  0.000000e+000  5.500000e+000  2.000000e+000
      vertex -3.833274e+000  5.833274e+000  2.000000e+000
      vertex -5.000000e+000  5.350000e+000  2.000000e+000
    endloop
  endfacet
  facet normal  -0.000000e+000  0.000000e+000  1.000000e+000
    outer loop
      vertex  0.000000e+000  5.500000e+000  2.000000e+000
      vertex -5.000000e+000  5.350000e+000  2.000000e+000
      vertex -2.750000e+000  4.763140e+000  2.000000e+000
    endloop
  endfacet
  facet normal  0.000000e+000  0.000000e+000  1.000000e+000
    outer loop
      vertex  0.000000e+000 -5.500000e+000  2.000000e+000
      vertex -2.750000e+000 -4.763140e+000  2.000000e+000
      vertex -5.000000e+000 -5.350000e+000  2.000000e+000
    endloop
  endfacet
  facet normal  0.000000e+000  0.000000e+000  1.000000e+000
    outer loop
      vertex  0.000000e+000 -5.500000e+000  2.000000e+000
      vertex -5.000000e+000 -5.350000e+000  2.000000e+000
      vertex -3.833274e+000 -5.833274e+000  2.000000e+000
    endloop
  endfacet
  facet normal  -0.000000e+000  0.000000e+000  1.000000e+000
    outer loop
      vertex  0.000000e+000 -5.500000e+000  2.000000e+000
      vertex -3.833274e+000 -5.833274e+000  2.000000e+000
      vertex  0.000000e+000 -1.000000e+001  2.000000e+000
    endloop
  endfacet
  facet normal  0.000000e+000  0.000000e+000  1.000000e+000
    outer loop
      vertex -8.000000e+000  1.000000e+001  2.000000e+000
      vertex -8.000000e+000 -1.000000e+001  2.000000e+000
      vertex -6.650000e+000  7.000000e+000  2.000000e+000
    endloop
  endfacet
  facet normal  0.000000e+000  -0.000000e+000  1.000000e+000
    outer loop
      vertex -8.000000e+000  1.000000e+001  2.000000e+000
      vertex -6.650000e+000  7.000000e+000  2.000000e+000
      vertex -6.166726e+000  8.166726e+000  2.000000e+000
    endloop
  endfacet
  facet normal  0.000000e+000  -0.000000e+000  1.000000e+000
    outer loop
      vertex -8.000000e+000  1.000000e+001  2.000000e+000
      vertex -6.166726e+000  8.166726e+000  2.000000e+000
      vertex -5.000000e+000  8.650000e+000  2.000000e+000
    endloop
  endfacet
  facet normal  0.000000e+000  0.000000e+000  1.000000e+000
    outer loop
      vertex  0.000000e+000 -1.000000e+001  2.000000e+000
      vertex -3.833274e+000 -5.833274e+000  2.000000e+000
      vertex -3.350000e+000 -7.000000e+000  2.000000e+000
    endloop
  endfacet
  facet normal  0.000000e+000  0.000000e+000  1.000000e+000
    outer loop
      vertex  0.000000e+000 -1.000000e+001  2.000000e+000
      vertex -3.350000e+000 -7.000000e+000  2.000000e+000
      vertex -3.833274e+000 -8.166726e+000  2.000000e+000
    endloop
  endfacet
  facet normal  0.000000e+000  0.000000e+000  1.000000e+000
    outer loop
      vertex  0.000000e+000 -1.000000e+001  2.000000e+000
      vertex -3.833274e+000 -8.166726e+000  2.000000e+000
      vertex -5.000000e+000 -8.650000e+000  2.000000e+000
    endloop
  endfacet
  facet normal  0.000000e+000  0.000000e+000  1.000000e+000
    outer loop
      vertex  0.000000e+000 -1.000000e+001  2.000000e+000
      vertex -5.000000e+000 -8.650000e+000  2.000000e+000
      vertex -8.000000e+000 -1.000000e+001  2.000000e+000
    endloop
  endfacet
  facet normal  0.000000e+000  0.000000e+000  1.000000e+000
    outer loop
      vertex -8.000000e+000 -1.000000e+001  2.000000e+000
      vertex -5.000000e+000 -8.650000e+000  2.000000e+000
      vertex -6.166726e+000 -8.166726e+000  2.000000e+000
    endloop
  endfacet
  facet normal  0.000000e+000  0.000000e+000  1.000000e+000
    outer loop
      vertex -8.000000e+000 -1.000000e+001  2.000000e+000
      vertex -6.166726e+000 -8.166726e+000  2.000000e+000
      vertex -6.650000e+000 -7.000000e+000  2.000000e+000
    endloop
  endfacet
  facet normal  0.000000e+000  -0.000000e+000  1.000000e+000
    outer loop
      vertex -8.000000e+000 -1.000000e+001  2.000000e+000
      vertex -6.650000e+000 -7.000000e+000  2.000000e+000
      vertex -6.166726e+000 -5.833274e+000  2.000000e+000
    endloop
  endfacet
  facet normal  0.000000e+000  -0.000000e+000  1.000000e+000
    outer loop
      vertex -8.000000e+000 -1.000000e+001  2.000000e+000
      vertex -6.166726e+000 -5.833274e+000  2.000000e+000
      vertex -5.500000e+000  5.558537e-015  2.000000e+000
    endloop
  endfacet
  facet normal  0.000000e+000  -0.000000e+000  1.000000e+000
    outer loop
      vertex -8.000000e+000 -1.000000e+001  2.000000e+000
      vertex -5.500000e+000  5.558537e-015  2.000000e+000
      vertex -5.000000e+000  5.350000e+000  2.000000e+000
    endloop
  endfacet
  facet normal  0.000000e+000  0.000000e+000  1.000000e+000
    outer loop
      vertex -8.000000e+000 -1.000000e+001  2.000000e+000
      vertex -5.000000e+000  5.350000e+000  2.000000e+000
      vertex -6.166726e+000  5.833274e+000  2.000000e+000
    endloop
  endfacet
  facet normal  0.000000e+000  0.000000e+000  1.000000e+000
    outer loop
      vertex -8.000000e+000 -1.000000e+001  2.000000e+000
      vertex -6.166726e+000  5.833274e+000  2.000000e+000
      vertex -6.650000e+000  7.000000e+000  2.000000e+000
    endloop
  endfacet
  facet normal  0.000000e+000  0.000000e+000  9.999999e-001
    outer loop
      vertex -3.833274e+000  8.166726e+000  2.000000e+000
      vertex  0.000000e+000  1.000000e+001  2.000000e+000
      vertex -5.000000e+000  8.650000e+000  2.000000e+000
    endloop
  endfacet
  facet normal  0.000000e+000  -0.000000e+000  1.000000e+000
    outer loop
      vertex -5.000000e+000  8.650000e+000  2.000000e+000
      vertex  0.000000e+000  1.000000e+001  2.000000e+000
      vertex -8.000000e+000  1.000000e+001  2.000000e+000
    endloop
  endfacet
  facet normal  0.000000e+000  0.000000e+000  1.000000e+000
    outer loop
      vertex -5.500000e+000  5.558537e-015  2.000000e+000
      vertex -6.166726e+000 -5.833274e+000  2.000000e+000
      vertex -4.763140e+000 -2.750000e+000  2.000000e+000
    endloop
  endfacet
  facet normal  0.000000e+000  0.000000e+000  1.000000e+000
    outer loop
      vertex -4.763140e+000 -2.750000e+000  2.000000e+000
      vertex -6.166726e+000 -5.833274e+000  2.000000e+000
      vertex -5.000000e+000 -5.350000e+000  2.000000e+000
    endloop
  endfacet
  facet normal  0.000000e+000  0.000000e+000  1.000000e+000
    outer loop
      vertex -4.763140e+000 -2.750000e+000  2.000000e+000
      vertex -5.000000e+000 -5.350000e+000  2.000000e+000
      vertex -2.750000e+000 -4.763140e+000  2.000000e+000
    endloop
  endfacet
  facet normal  -0.000000e+000  0.000000e+000 -1.000000e+000
    outer loop
      vertex -5.500000e+000  2.664535e-015  0.000000e+000
      vertex -4.763140e+000 -2.750000e+000  0.000000e+000
      vertex -5.000000e+000 -5.350000e+000  0.000000e+000
    endloop
  endfacet
  facet normal  0.000000e+000  0.000000e+000 -1.000000e+000
    outer loop
      vertex  0.000000e+000  5.500000e+000  0.000000e+000
      vertex -2.750000e+000  4.763140e+000  0.000000e+000
      vertex -5.000000e+000  5.350000e+000  0.000000e+000
    endloop
  endfacet
  facet normal  0.000000e+000  0.000000e+000 -1.000000e+000
    outer loop
      vertex  0.000000e+000  5.500000e+000  0.000000e+000
      vertex -5.000000e+000  5.350000e+000  0.000000e+000
      vertex -3.833274e+000  5.833274e+000  0.000000e+000
    endloop
  endfacet
  facet normal  0.000000e+000  0.000000e+000 -1.000000e+000
    outer loop
      vertex  0.000000e+000  5.500000e+000  0.000000e+000
      vertex -3.833274e+000  5.833274e+000  0.000000e+000
      vertex  2.000000e+000  1.000000e+001  0.000000e+000
    endloop
  endfacet
  facet normal  0.000000e+000  -0.000000e+000 -1.000000e+000
    outer loop
      vertex  0.000000e+000  5.500000e+000  0.000000e+000
      vertex  2.000000e+000  1.000000e+001  0.000000e+000
      vertex  2.000000e+000  5.500000e+000  0.000000e+000
    endloop
  endfacet
  facet normal  2.706918e-015 -5.921189e-015 -1.000000e+000
    outer loop
      vertex  2.000000e+000 -5.500000e+000  0.000000e+000
      vertex  2.000000e+000 -1.000000e+001  2.664535e-014
      vertex -3.833274e+000 -8.166726e+000  0.000000e+000
    endloop
  endfacet
  facet normal  0.000000e+000  0.000000e+000 -9.999999e-001
    outer loop
      vertex  2.000000e+000 -5.500000e+000  0.000000e+000
      vertex -3.833274e+000 -8.166726e+000  0.000000e+000
      vertex -3.350000e+000 -7.000000e+000  0.000000e+000
    endloop
  endfacet
  facet normal  0.000000e+000  0.000000e+000 -9.999999e-001
    outer loop
      vertex  2.000000e+000 -5.500000e+000  0.000000e+000
      vertex -3.350000e+000 -7.000000e+000  0.000000e+000
      vertex -3.833274e+000 -5.833274e+000  0.000000e+000
    endloop
  endfacet
  facet normal -4.440892e-016  7.772868e-015 -9.999999e-001
    outer loop
      vertex  2.000000e+000 -5.500000e+000  0.000000e+000
      vertex -3.833274e+000 -5.833274e+000  0.000000e+000
      vertex  0.000000e+000 -5.500000e+000  8.881784e-016
    endloop
  endfacet
  facet normal  -0.000000e+000  0.000000e+000 -1.000000e+000
    outer loop
      vertex -8.000000e+000  1.000000e+001  0.000000e+000
      vertex  2.000000e+000  1.000000e+001  0.000000e+000
      vertex -5.000000e+000  8.650000e+000  0.000000e+000
    endloop
  endfacet
  facet normal  -0.000000e+000  0.000000e+000 -1.000000e+000
    outer loop
      vertex -8.000000e+000  1.000000e+001  0.000000e+000
      vertex -5.000000e+000  8.650000e+000  0.000000e+000
      vertex -6.166726e+000  8.166726e+000  0.000000e+000
    endloop
  endfacet
  facet normal  -0.000000e+000  0.000000e+000 -1.000000e+000
    outer loop
      vertex -8.000000e+000  1.000000e+001  0.000000e+000
      vertex -6.166726e+000  8.166726e+000  0.000000e+000
      vertex -6.650000e+000  7.000000e+000  0.000000e+000
    endloop
  endfacet
  facet normal  -0.000000e+000  -0.000000e+000 -1.000000e+000
    outer loop
      vertex -8.000000e+000  1.000000e+001  0.000000e+000
      vertex -6.650000e+000  7.000000e+000  0.000000e+000
      vertex -6.166726e+000  5.833274e+000  0.000000e+000
    endloop
  endfacet
  facet normal  -0.000000e+000  -0.000000e+000 -1.000000e+000
    outer loop
      vertex -8.000000e+000  1.000000e+001  0.000000e+000
      vertex -6.166726e+000  5.833274e+000  0.000000e+000
      vertex -5.500000e+000  2.664535e-015  0.000000e+000
    endloop
  endfacet
  facet normal  -0.000000e+000  -0.000000e+000 -1.000000e+000
    outer loop
      vertex -8.000000e+000  1.000000e+001  0.000000e+000
      vertex -5.500000e+000  2.664535e-015  0.000000e+000
      vertex -5.000000e+000 -5.350000e+000  0.000000e+000
    endloop
  endfacet
  facet normal  -0.000000e+000  0.000000e+000 -1.000000e+000
    outer loop
      vertex -8.000000e+000  1.000000e+001  0.000000e+000
      vertex -5.000000e+000 -5.350000e+000  0.000000e+000
      vertex -6.166726e+000 -5.833274e+000  0.000000e+000
    endloop
  endfacet
  facet normal  -0.000000e+000  0.000000e+000 -1.000000e+000
    outer loop
      vertex -8.000000e+000  1.000000e+001  0.000000e+000
      vertex -6.166726e+000 -5.833274e+000  0.000000e+000
      vertex -6.650000e+000 -7.000000e+000  0.000000e+000
    endloop
  endfacet
  facet normal  0.000000e+000  0.000000e+000 -1.000000e+000
    outer loop
      vertex -8.000000e+000 -1.000000e+001  0.000000e+000
      vertex -8.000000e+000  1.000000e+001  0.000000e+000
      vertex -6.650000e+000 -7.000000e+000  0.000000e+000
    endloop
  endfacet
  facet normal  0.000000e+000  -0.000000e+000 -1.000000e+000
    outer loop
      vertex -8.000000e+000 -1.000000e+001  0.000000e+000
      vertex -6.650000e+000 -7.000000e+000  0.000000e+000
      vertex -6.166726e+000 -8.166726e+000  0.000000e+000
    endloop
  endfacet
  facet normal  0.000000e+000  -0.000000e+000 -1.000000e+000
    outer loop
      vertex -8.000000e+000 -1.000000e+001  0.000000e+000
      vertex -6.166726e+000 -8.166726e+000  0.000000e+000
      vertex -5.000000e+000 -8.650000e+000  0.000000e+000
    endloop
  endfacet
  facet normal  0.000000e+000  -0.000000e+000 -1.000000e+000
    outer loop
      vertex -8.000000e+000 -1.000000e+001  0.000000e+000
      vertex -5.000000e+000 -8.650000e+000  0.000000e+000
      vertex -3.833274e+000 -8.166726e+000  0.000000e+000
    endloop
  endfacet
  facet normal  2.664535e-015 -6.056045e-015 -1.000000e+000
    outer loop
      vertex -8.000000e+000 -1.000000e+001  0.000000e+000
      vertex -3.833274e+000 -8.166726e+000  0.000000e+000
      vertex  2.000000e+000 -1.000000e+001  2.664535e-014
    endloop
  endfacet
  facet normal  0.000000e+000  0.000000e+000 -1.000000e+000
    outer loop
      vertex  2.000000e+000  1.000000e+001  0.000000e+000
      vertex -3.833274e+000  5.833274e+000  0.000000e+000
      vertex -3.350000e+000  7.000000e+000  0.000000e+000
    endloop
  endfacet
  facet normal  0.000000e+000  0.000000e+000 -1.000000e+000
    outer loop
      vertex  2.000000e+000  1.000000e+001  0.000000e+000
      vertex -3.350000e+000  7.000000e+000  0.000000e+000
      vertex -3.833274e+000  8.166726e+000  0.000000e+000
    endloop
  endfacet
  facet normal  0.000000e+000  0.000000e+000 -1.000000e+000
    outer loop
      vertex  2.000000e+000  1.000000e+001  0.000000e+000
      vertex -3.833274e+000  8.166726e+000  0.000000e+000
      vertex -5.000000e+000  8.650000e+000  0.000000e+000
    endloop
  endfacet
  facet normal  -0.000000e+000  0.000000e+000 -1.000000e+000
    outer loop
      vertex -4.763140e+000 -2.750000e+000  0.000000e+000
      vertex -2.750000e+000 -4.763140e+000  0.000000e+000
      vertex -5.000000e+000 -5.350000e+000  0.000000e+000
    endloop
  endfacet
  facet normal  1.593118e-016 -6.107956e-016 -1.000000e+000
    outer loop
      vertex -5.000000e+000 -5.350000e+000  0.000000e+000
      vertex -2.750000e+000 -4.763140e+000  0.000000e+000
      vertex  0.000000e+000 -5.500000e+000  8.881784e-016
    endloop
  endfacet
  facet normal  1.915058e-016  4.623356e-016 -1.000000e+000
    outer loop
      vertex -5.000000e+000 -5.350000e+000  0.000000e+000
      vertex  0.000000e+000 -5.500000e+000  8.881784e-016
      vertex -3.833274e+000 -5.833274e+000  0.000000e+000
    endloop
  endfacet
  facet normal  0.000000e+000  0.000000e+000 -1.000000e+000
    outer loop
      vertex -2.750000e+000  4.763140e+000  0.000000e+000
      vertex -4.763140e+000  2.750000e+000  0.000000e+000
      vertex -5.000000e+000  5.350000e+000  0.000000e+000
    endloop
  endfacet
  facet normal  0.000000e+000  -0.000000e+000 -1.000000e+000
    outer loop
      vertex -5.000000e+000  5.350000e+000  0.000000e+000
      vertex -4.763140e+000  2.750000e+000  0.000000e+000
      vertex -5.500000e+000  2.664535e-015  0.000000e+000
    endloop
  endfacet
  facet normal  0.000000e+000  0.000000e+000 -9.999999e-001
    outer loop
      vertex -5.000000e+000  5.350000e+000  0.000000e+000
      vertex -5.500000e+000  2.664535e-015  0.000000e+000
      vertex -6.166726e+000  5.833274e+000  0.000000e+000
    endloop
  endfacet
  facet normal  3.826836e-001 -9.238795e-001  0.000000e+000
    outer loop
      vertex -5.000000e+000 -5.350000e+000  0.000000e+000
      vertex -6.166726e+000 -5.833274e+000  2.000000e+000
      vertex -6.166726e+000 -5.833274e+000  0.000000e+000
    endloop
  endfacet
  facet normal  9.238795e-001 -3.826836e-001  0.000000e+000
    outer loop
      vertex -6.166726e+000 -5.833274e+000  0.000000e+000
      vertex -6.166726e+000 -5.833274e+000  2.000000e+000
      vertex -6.650000e+000 -7.000000e+000  2.000000e+000
    endloop
  endfacet
  facet normal  9.238795e-001 -3.826836e-001  0.000000e+000
    outer loop
      vertex -6.166726e+000 -5.833274e+000  0.000000e+000
      vertex -6.650000e+000 -7.000000e+000  2.000000e+000
      vertex -6.650000e+000 -7.000000e+000  0.000000e+000
    endloop
  endfacet
  facet normal  3.826836e-001 -9.238795e-001  0.000000e+000
    outer loop
      vertex -6.166726e+000 -5.833274e+000  2.000000e+000
      vertex -5.000000e+000 -5.350000e+000  0.000000e+000
      vertex -5.000000e+000 -5.350000e+000  2.000000e+000
    endloop
  endfacet
  facet normal -3.826836e-001 -9.238795e-001  -0.000000e+000
    outer loop
      vertex -5.000000e+000 -5.350000e+000  2.000000e+000
      vertex -5.000000e+000 -5.350000e+000  0.000000e+000
      vertex -3.833274e+000 -5.833274e+000  0.000000e+000
    endloop
  endfacet
  facet normal -3.826836e-001 -9.238795e-001  0.000000e+000
    outer loop
      vertex -5.000000e+000 -5.350000e+000  2.000000e+000
      vertex -3.833274e+000 -5.833274e+000  0.000000e+000
      vertex -3.833274e+000 -5.833274e+000  2.000000e+000
    endloop
  endfacet
  facet normal -9.238795e-001 -3.826836e-001  -0.000000e+000
    outer loop
      vertex -3.833274e+000 -5.833274e+000  2.000000e+000
      vertex -3.833274e+000 -5.833274e+000  0.000000e+000
      vertex -3.350000e+000 -7.000000e+000  0.000000e+000
    endloop
  endfacet
  facet normal -9.238795e-001 -3.826836e-001  0.000000e+000
    outer loop
      vertex -3.833274e+000 -5.833274e+000  2.000000e+000
      vertex -3.350000e+000 -7.000000e+000  0.000000e+000
      vertex -3.350000e+000 -7.000000e+000  2.000000e+000
    endloop
  endfacet
  facet normal -3.826832e-001  9.238796e-001  0.000000e+000
    outer loop
      vertex -5.000000e+000 -8.650000e+000  0.000000e+000
      vertex -3.833274e+000 -8.166726e+000  2.000000e+000
      vertex -3.833274e+000 -8.166726e+000  0.000000e+000
    endloop
  endfacet
  facet normal -9.238795e-001  3.826836e-001  0.000000e+000
    outer loop
      vertex -3.833274e+000 -8.166726e+000  0.000000e+000
      vertex -3.833274e+000 -8.166726e+000  2.000000e+000
      vertex -3.350000e+000 -7.000000e+000  2.000000e+000
    endloop
  endfacet
  facet normal -9.238795e-001  3.826836e-001  0.000000e+000
    outer loop
      vertex -3.833274e+000 -8.166726e+000  0.000000e+000
      vertex -3.350000e+000 -7.000000e+000  2.000000e+000
      vertex -3.350000e+000 -7.000000e+000  0.000000e+000
    endloop
  endfacet
  facet normal -3.826832e-001  9.238796e-001  0.000000e+000
    outer loop
      vertex -3.833274e+000 -8.166726e+000  2.000000e+000
      vertex -5.000000e+000 -8.650000e+000  0.000000e+000
      vertex -5.000000e+000 -8.650000e+000  2.000000e+000
    endloop
  endfacet
  facet normal  3.826832e-001  9.238796e-001  0.000000e+000
    outer loop
      vertex -5.000000e+000 -8.650000e+000  2.000000e+000
      vertex -5.000000e+000 -8.650000e+000  0.000000e+000
      vertex -6.166726e+000 -8.166726e+000  0.000000e+000
    endloop
  endfacet
  facet normal  3.826832e-001  9.238796e-001  -0.000000e+000
    outer loop
      vertex -5.000000e+000 -8.650000e+000  2.000000e+000
      vertex -6.166726e+000 -8.166726e+000  0.000000e+000
      vertex -6.166726e+000 -8.166726e+000  2.000000e+000
    endloop
  endfacet
  facet normal  9.238795e-001  3.826836e-001  0.000000e+000
    outer loop
      vertex -6.166726e+000 -8.166726e+000  2.000000e+000
      vertex -6.166726e+000 -8.166726e+000  0.000000e+000
      vertex -6.650000e+000 -7.000000e+000  0.000000e+000
    endloop
  endfacet
  facet normal  9.238795e-001  3.826836e-001  -0.000000e+000
    outer loop
      vertex -6.166726e+000 -8.166726e+000  2.000000e+000
      vertex -6.650000e+000 -7.000000e+000  0.000000e+000
      vertex -6.650000e+000 -7.000000e+000  2.000000e+000
    endloop
  endfacet
  facet normal  3.826832e-001 -9.238796e-001  0.000000e+000
    outer loop
      vertex -5.000000e+000  8.650000e+000  0.000000e+000
      vertex -6.166726e+000  8.166726e+000  2.000000e+000
      vertex -6.166726e+000  8.166726e+000  0.000000e+000
    endloop
  endfacet
  facet normal  9.238795e-001 -3.826836e-001  0.000000e+000
    outer loop
      vertex -6.166726e+000  8.166726e+000  0.000000e+000
      vertex -6.166726e+000  8.166726e+000  2.000000e+000
      vertex -6.650000e+000  7.000000e+000  2.000000e+000
    endloop
  endfacet
  facet normal  9.238795e-001 -3.826836e-001  0.000000e+000
    outer loop
      vertex -6.166726e+000  8.166726e+000  0.000000e+000
      vertex -6.650000e+000  7.000000e+000  2.000000e+000
      vertex -6.650000e+000  7.000000e+000  0.000000e+000
    endloop
  endfacet
  facet normal  3.826832e-001 -9.238796e-001  0.000000e+000
    outer loop
      vertex -6.166726e+000  8.166726e+000  2.000000e+000
      vertex -5.000000e+000  8.650000e+000  0.000000e+000
      vertex -5.000000e+000  8.650000e+000  2.000000e+000
    endloop
  endfacet
  facet normal -3.826832e-001 -9.238796e-001  -0.000000e+000
    outer loop
      vertex -5.000000e+000  8.650000e+000  2.000000e+000
      vertex -5.000000e+000  8.650000e+000  0.000000e+000
      vertex -3.833274e+000  8.166726e+000  0.000000e+000
    endloop
  endfacet
  facet normal -3.826832e-001 -9.238796e-001  0.000000e+000
    outer loop
      vertex -5.000000e+000  8.650000e+000  2.000000e+000
      vertex -3.833274e+000  8.166726e+000  0.000000e+000
      vertex -3.833274e+000  8.166726e+000  2.000000e+000
    endloop
  endfacet
  facet normal -9.238795e-001 -3.826836e-001  -0.000000e+000
    outer loop
      vertex -3.833274e+000  8.166726e+000  2.000000e+000
      vertex -3.833274e+000  8.166726e+000  0.000000e+000
      vertex -3.350000e+000  7.000000e+000  0.000000e+000
    endloop
  endfacet
  facet normal -9.238795e-001 -3.826836e-001  0.000000e+000
    outer loop
      vertex -3.833274e+000  8.166726e+000  2.000000e+000
      vertex -3.350000e+000  7.000000e+000  0.000000e+000
      vertex -3.350000e+000  7.000000e+000  2.000000e+000
    endloop
  endfacet
  facet normal -3.826836e-001  9.238795e-001  0.000000e+000
    outer loop
      vertex -5.000000e+000  5.350000e+000  0.000000e+000
      vertex -3.833274e+000  5.833274e+000  2.000000e+000
      vertex -3.833274e+000  5.833274e+000  0.000000e+000
    endloop
  endfacet
  facet normal -9.238795e-001  3.826836e-001  0.000000e+000
    outer loop
      vertex -3.833274e+000  5.833274e+000  0.000000e+000
      vertex -3.833274e+000  5.833274e+000  2.000000e+000
      vertex -3.350000e+000  7.000000e+000  2.000000e+000
    endloop
  endfacet
  facet normal -9.238795e-001  3.826836e-001  0.000000e+000
    outer loop
      vertex -3.833274e+000  5.833274e+000  0.000000e+000
      vertex -3.350000e+000  7.000000e+000  2.000000e+000
      vertex -3.350000e+000  7.000000e+000  0.000000e+000
    endloop
  endfacet
  facet normal -3.826836e-001  9.238795e-001  0.000000e+000
    outer loop
      vertex -3.833274e+000  5.833274e+000  2.000000e+000
      vertex -5.000000e+000  5.350000e+000  0.000000e+000
      vertex -5.000000e+000  5.350000e+000  2.000000e+000
    endloop
  endfacet
  facet normal  3.826836e-001  9.238795e-001  0.000000e+000
    outer loop
      vertex -5.000000e+000  5.350000e+000  2.000000e+000
      vertex -5.000000e+000  5.350000e+000  0.000000e+000
      vertex -6.166726e+000  5.833274e+000  0.000000e+000
    endloop
  endfacet
  facet normal  3.826836e-001  9.238795e-001  -0.000000e+000
    outer loop
      vertex -5.000000e+000  5.350000e+000  2.000000e+000
      vertex -6.166726e+000  5.833274e+000  0.000000e+000
      vertex -6.166726e+000  5.833274e+000  2.000000e+000
    endloop
  endfacet
  facet normal  9.238795e-001  3.826836e-001  0.000000e+000
    outer loop
      vertex -6.166726e+000  5.833274e+000  2.000000e+000
      vertex -6.166726e+000  5.833274e+000  0.000000e+000
      vertex -6.650000e+000  7.000000e+000  0.000000e+000
    endloop
  endfacet
  facet normal  9.238795e-001  3.826836e-001  -0.000000e+000
    outer loop
      vertex -6.166726e+000  5.833274e+000  2.000000e+000
      vertex -6.650000e+000  7.000000e+000  0.000000e+000
      vertex -6.650000e+000  7.000000e+000  2.000000e+000
    endloop
  endfacet
  facet normal -1.000000e+000  0.000000e+000  0.000000e+000
    outer loop
      vertex  0.000000e+000  5.500000e+000  5.000000e+000
      vertex  0.000000e+000  1.000000e+001  2.000000e+000
      vertex  0.000000e+000  5.500000e+000  2.000000e+000
    endloop
  endfacet
  facet normal -1.000000e+000  0.000000e+000  0.000000e+000
    outer loop
      vertex  0.000000e+000  1.000000e+001  2.000000e+000
      vertex  0.000000e+000  5.500000e+000  5.000000e+000
      vertex  0.000000e+000  1.000000e+001  1.000000e+001
    endloop
  endfacet
  facet normal -9.999999e-001  0.000000e+000  0.000000e+000
    outer loop
      vertex  0.000000e+000  1.000000e+001  1.000000e+001
      vertex  0.000000e+000  5.500000e+000  5.000000e+000
      vertex  0.000000e+000 -5.500000e+000  5.000000e+000
    endloop
  endfacet
  facet normal -1.000000e+000  0.000000e+000  0.000000e+000
    outer loop
      vertex  0.000000e+000  1.000000e+001  1.000000e+001
      vertex  0.000000e+000 -5.500000e+000  5.000000e+000
      vertex  0.000000e+000 -1.000000e+001  1.000000e+001
    endloop
  endfacet
  facet normal -1.000000e+000  0.000000e+000  0.000000e+000
    outer loop
      vertex  0.000000e+000 -1.000000e+001  1.000000e+001
      vertex  0.000000e+000 -5.500000e+000  5.000000e+000
      vertex  0.000000e+000 -5.500000e+000  2.000000e+000
    endloop
  endfacet
  facet normal -1.000000e+000  0.000000e+000  0.000000e+000
    outer loop
      vertex  0.000000e+000 -1.000000e+001  1.000000e+001
      vertex  0.000000e+000 -5.500000e+000  2.000000e+000
      vertex  0.000000e+000 -1.000000e+001  2.000000e+000
    endloop
  endfacet
  facet normal  0.000000e+000 -1.000000e+000  0.000000e+000
    outer loop
      vertex  0.000000e+000  5.500000e+000  0.000000e+000
      vertex  2.000000e+000  5.500000e+000  0.000000e+000
      vertex  0.000000e+000  5.500000e+000  2.000000e+000
    endloop
  endfacet
  facet normal  0.000000e+000 -1.000000e+000  0.000000e+000
    outer loop
      vertex  0.000000e+000  5.500000e+000  2.000000e+000
      vertex  2.000000e+000  5.500000e+000  0.000000e+000
      vertex  2.000000e+000  5.500000e+000  5.000000e+000
    endloop
  endfacet
  facet normal  -0.000000e+000 -1.000000e+000  0.000000e+000
    outer loop
      vertex  0.000000e+000  5.500000e+000  2.000000e+000
      vertex  2.000000e+000  5.500000e+000  5.000000e+000
      vertex  0.000000e+000  5.500000e+000  5.000000e+000
    endloop
  endfacet
  facet normal  0.000000e+000  1.000000e+000  0.000000e+000
    outer loop
      vertex  0.000000e+000 -5.500000e+000  5.000000e+000
      vertex  2.000000e+000 -5.500000e+000  5.000000e+000
      vertex  0.000000e+000 -5.500000e+000  2.000000e+000
    endloop
  endfacet
  facet normal  -0.000000e+000  1.000000e+000  0.000000e+000
    outer loop
      vertex  0.000000e+000 -5.500000e+000  2.000000e+000
      vertex  2.000000e+000 -5.500000e+000  5.000000e+000
      vertex  2.000000e+000 -5.500000e+000  0.000000e+000
    endloop
  endfacet
  facet normal  0.000000e+000  1.000000e+000  0.000000e+000
    outer loop
      vertex  0.000000e+000 -5.500000e+000  2.000000e+000
      vertex  2.000000e+000 -5.500000e+000  0.000000e+000
      vertex  0.000000e+000 -5.500000e+000  8.881784e-016
    endloop
  endfacet
  facet normal  1.000000e+000  0.000000e+000  0.000000e+000
    outer loop
      vertex  2.000000e+000 -5.500000e+000  5.000000e+000
      vertex  2.000000e+000 -5.707107e+000  6.792893e+000
      vertex  2.000000e+000 -6.000000e+000  7.500000e+000
    endloop
  endfacet
  facet normal  1.000000e+000  0.000000e+000  0.000000e+000
    outer loop
      vertex  2.000000e+000 -5.500000e+000  5.000000e+000
      vertex  2.000000e+000 -5.000000e+000  6.500000e+000
      vertex  2.000000e+000 -5.707107e+000  6.792893e+000
    endloop
  endfacet
  facet normal  9.999999e-001  0.000000e+000  0.000000e+000
    outer loop
      vertex  2.000000e+000  5.500000e+000  5.000000e+000
      vertex  2.000000e+000  6.000000e+000  7.500000e+000
      vertex  2.000000e+000  5.707107e+000  6.792893e+000
    endloop
  endfacet
  facet normal  1.000000e+000  0.000000e+000  0.000000e+000
    outer loop
      vertex  2.000000e+000  5.500000e+000  5.000000e+000
      vertex  2.000000e+000  5.707107e+000  6.792893e+000
      vertex  2.000000e+000  5.000000e+000  6.500000e+000
    endloop
  endfacet
  facet normal  1.000000e+000  0.000000e+000  0.000000e+000
    outer loop
      vertex  2.000000e+000  5.500000e+000  5.000000e+000
      vertex  2.000000e+000  5.000000e+000  6.500000e+000
      vertex  2.000000e+000 -5.000000e+000  6.500000e+000
    endloop
  endfacet
  facet normal  1.000000e+000  0.000000e+000  0.000000e+000
    outer loop
      vertex  2.000000e+000  5.500000e+000  5.000000e+000
      vertex  2.000000e+000 -5.000000e+000  6.500000e+000
      vertex  2.000000e+000 -5.500000e+000  5.000000e+000
    endloop
  endfacet
  facet normal  1.000000e+000  -0.000000e+000  0.000000e+000
    outer loop
      vertex  2.000000e+000 -1.000000e+001  1.000000e+001
      vertex  2.000000e+000 -1.000000e+001  2.664535e-014
      vertex  2.000000e+000 -5.500000e+000  0.000000e+000
    endloop
  endfacet
  facet normal  1.000000e+000  0.000000e+000  -0.000000e+000
    outer loop
      vertex  2.000000e+000 -1.000000e+001  1.000000e+001
      vertex  2.000000e+000 -5.500000e+000  0.000000e+000
      vertex  2.000000e+000 -5.500000e+000  5.000000e+000
    endloop
  endfacet
  facet normal  1.000000e+000  0.000000e+000  0.000000e+000
    outer loop
      vertex  2.000000e+000 -1.000000e+001  1.000000e+001
      vertex  2.000000e+000 -5.500000e+000  5.000000e+000
      vertex  2.000000e+000 -6.000000e+000  7.500000e+000
    endloop
  endfacet
  facet normal  9.999999e-001  0.000000e+000  -0.000000e+000
    outer loop
      vertex  2.000000e+000 -1.000000e+001  1.000000e+001
      vertex  2.000000e+000 -6.000000e+000  7.500000e+000
      vertex  2.000000e+000 -5.707107e+000  8.207107e+000
    endloop
  endfacet
  facet normal  1.000000e+000  0.000000e+000  -0.000000e+000
    outer loop
      vertex  2.000000e+000 -1.000000e+001  1.000000e+001
      vertex  2.000000e+000 -5.707107e+000  8.207107e+000
      vertex  2.000000e+000 -5.000000e+000  8.500000e+000
    endloop
  endfacet
  facet normal  1.000000e+000  0.000000e+000  -0.000000e+000
    outer loop
      vertex  2.000000e+000 -1.000000e+001  1.000000e+001
      vertex  2.000000e+000 -5.000000e+000  8.500000e+000
      vertex  2.000000e+000  5.000000e+000  8.500000e+000
    endloop
  endfacet
  facet normal  1.000000e+000  0.000000e+000  -0.000000e+000
    outer loop
      vertex  2.000000e+000 -1.000000e+001  1.000000e+001
      vertex  2.000000e+000  5.000000e+000  8.500000e+000
      vertex  2.000000e+000  1.000000e+001  1.000000e+001
    endloop
  endfacet
  facet normal  1.000000e+000  -0.000000e+000  0.000000e+000
    outer loop
      vertex  2.000000e+000  1.000000e+001  1.000000e+001
      vertex  2.000000e+000  5.000000e+000  8.500000e+000
      vertex  2.000000e+000  5.707107e+000  8.207107e+000
    endloop
  endfacet
  facet normal  9.999999e-001  -0.000000e+000  0.000000e+000
    outer loop
      vertex  2.000000e+000  1.000000e+001  1.000000e+001
      vertex  2.000000e+000  5.707107e+000  8.207107e+000
      vertex  2.000000e+000  6.000000e+000  7.500000e+000
    endloop
  endfacet
  facet normal  1.000000e+000  -0.000000e+000  0.000000e+000
    outer loop
      vertex  2.000000e+000  1.000000e+001  1.000000e+001
      vertex  2.000000e+000  6.000000e+000  7.500000e+000
      vertex  2.000000e+000  5.500000e+000  5.000000e+000
    endloop
  endfacet
  facet normal  1.000000e+000  -0.000000e+000  0.000000e+000
    outer loop
      vertex  2.000000e+000  1.000000e+001  1.000000e+001
      vertex  2.000000e+000  5.500000e+000  5.000000e+000
      vertex  2.000000e+000  5.500000e+000  0.000000e+000
    endloop
  endfacet
  facet normal  1.000000e+000  0.000000e+000  0.000000e+000
    outer loop
      vertex  2.000000e+000  1.000000e+001  1.000000e+001
      vertex  2.000000e+000  5.500000e+000  0.000000e+000
      vertex  2.000000e+000  1.000000e+001  0.000000e+000
    endloop
  endfacet
  facet normal  1.000000e+000  -0.000000e+000  0.000000e+000
    outer loop
      vertex  2.000000e+000  5.000000e+000  8.500000e+000
      vertex  2.000000e+000 -5.000000e+000  8.500000e+000
      vertex  2.000000e+000  4.292893e+000  8.207107e+000
    endloop
  endfacet
  facet normal  1.000000e+000  0.000000e+000  0.000000e+000
    outer loop
      vertex  2.000000e+000  4.292893e+000  8.207107e+000
      vertex  2.000000e+000 -5.000000e+000  8.500000e+000
      vertex  2.000000e+000 -4.292893e+000  8.207107e+000
    endloop
  endfacet
  facet normal  1.000000e+000  -0.000000e+000  0.000000e+000
    outer loop
      vertex  2.000000e+000  4.292893e+000  8.207107e+000
      vertex  2.000000e+000 -4.292893e+000  8.207107e+000
      vertex  2.000000e+000  4.000000e+000  7.500000e+000
    endloop
  endfacet
  facet normal  9.999999e-001  0.000000e+000  0.000000e+000
    outer loop
      vertex  2.000000e+000  4.000000e+000  7.500000e+000
      vertex  2.000000e+000 -4.292893e+000  8.207107e+000
      vertex  2.000000e+000 -4.000000e+000  7.500000e+000
    endloop
  endfacet
  facet normal  9.999999e-001  -0.000000e+000  0.000000e+000
    outer loop
      vertex  2.000000e+000  4.000000e+000  7.500000e+000
      vertex  2.000000e+000 -4.000000e+000  7.500000e+000
      vertex  2.000000e+000  4.292893e+000  6.792893e+000
    endloop
  endfacet
  facet normal  1.000000e+000  0.000000e+000  0.000000e+000
    outer loop
      vertex  2.000000e+000  4.292893e+000  6.792893e+000
      vertex  2.000000e+000 -4.000000e+000  7.500000e+000
      vertex  2.000000e+000 -4.292893e+000  6.792893e+000
    endloop
  endfacet
  facet normal  1.000000e+000  -0.000000e+000  0.000000e+000
    outer loop
      vertex  2.000000e+000  4.292893e+000  6.792893e+000
      vertex  2.000000e+000 -4.292893e+000  6.792893e+000
      vertex  2.000000e+000  5.000000e+000  6.500000e+000
    endloop
  endfacet
  facet normal  1.000000e+000  0.000000e+000  0.000000e+000
    outer loop
      vertex  2.000000e+000  5.000000e+000  6.500000e+000
      vertex  2.000000e+000 -4.292893e+000  6.792893e+000
      vertex  2.000000e+000 -5.000000e+000  6.500000e+000
    endloop
  endfacet
  facet normal -1.000000e+000  0.000000e+000  0.000000e+000
    outer loop
      vertex -8.000000e+000  1.000000e+001  0.000000e+000
      vertex -8.000000e+000 -1.000000e+001  0.000000e+000
      vertex -8.000000e+000  1.000000e+001  2.000000e+000
    endloop
  endfacet
  facet normal -1.000000e+000  -0.000000e+000  0.000000e+000
    outer loop
      vertex -8.000000e+000  1.000000e+001  2.000000e+000
      vertex -8.000000e+000 -1.000000e+001  0.000000e+000
      vertex -8.000000e+000 -1.000000e+001  2.000000e+000
    endloop
  endfacet
  facet normal  0.000000e+000  1.000000e+000  0.000000e+000
    outer loop
      vertex -8.000000e+000  1.000000e+001  0.000000e+000
      vertex -8.000000e+000  1.000000e+001  2.000000e+000
      vertex  2.000000e+000  1.000000e+001  0.000000e+000
    endloop
  endfacet
  facet normal  0.000000e+000  1.000000e+000  0.000000e+000
    outer loop
      vertex  2.000000e+000  1.000000e+001  0.000000e+000
      vertex -8.000000e+000  1.000000e+001  2.000000e+000
      vertex  0.000000e+000  1.000000e+001  2.000000e+000
    endloop
  endfacet
  facet normal  -0.000000e+000  1.000000e+000  0.000000e+000
    outer loop
      vertex  2.000000e+000  1.000000e+001  0.000000e+000
      vertex  0.000000e+000  1.000000e+001  2.000000e+000
      vertex  2.000000e+000  1.000000e+001  1.000000e+001
    endloop
  endfacet
  facet normal  0.000000e+000  1.000000e+000  0.000000e+000
    outer loop
      vertex  2.000000e+000  1.000000e+001  1.000000e+001
      vertex  0.000000e+000  1.000000e+001  2.000000e+000
      vertex  0.000000e+000  1.000000e+001  1.000000e+001
    endloop
  endfacet
  facet normal  0.000000e+000 -1.000000e+000  0.000000e+000
    outer loop
      vertex  2.000000e+000 -1.000000e+001  1.000000e+001
      vertex  0.000000e+000 -1.000000e+001  1.000000e+001
      vertex  2.000000e+000 -1.000000e+001  2.664535e-014
    endloop
  endfacet
  facet normal  0.000000e+000 -1.000000e+000  0.000000e+000
    outer loop
      vertex  2.000000e+000 -1.000000e+001  2.664535e-014
      vertex  0.000000e+000 -1.000000e+001  1.000000e+001
      vertex  0.000000e+000 -1.000000e+001  2.000000e+000
    endloop
  endfacet
  facet normal  0.000000e+000 -1.000000e+000  -0.000000e+000
    outer loop
      vertex  2.000000e+000 -1.000000e+001  2.664535e-014
      vertex  0.000000e+000 -1.000000e+001  2.000000e+000
      vertex -8.000000e+000 -1.000000e+001  0.000000e+000
    endloop
  endfacet
  facet normal  0.000000e+000 -1.000000e+000  0.000000e+000
    outer loop
      vertex -8.000000e+000 -1.000000e+001  0.000000e+000
      vertex  0.000000e+000 -1.000000e+001  2.000000e+000
      vertex -8.000000e+000 -1.000000e+001  2.000000e+000
    endloop
  endfacet
  facet normal  0.000000e+000  0.000000e+000 -1.000000e+000
    outer loop
      vertex  2.000000e+000  5.500000e+000  5.000000e+000
      vertex  2.000000e+000 -5.500000e+000  5.000000e+000
      vertex  0.000000e+000  5.500000e+000  5.000000e+000
    endloop
  endfacet
  facet normal  0.000000e+000  0.000000e+000 -1.000000e+000
    outer loop
      vertex  0.000000e+000  5.500000e+000  5.000000e+000
      vertex  2.000000e+000 -5.500000e+000  5.000000e+000
      vertex  0.000000e+000 -5.500000e+000  5.000000e+000
    endloop
  endfacet
  facet normal  -0.000000e+000  0.000000e+000  1.000000e+000
    outer loop
      vertex  2.000000e+000  1.000000e+001  1.000000e+001
      vertex  0.000000e+000  1.000000e+001  1.000000e+001
      vertex  2.000000e+000 -1.000000e+001  1.000000e+001
    endloop
  endfacet
  facet normal  0.000000e+000  0.000000e+000  1.000000e+000
    outer loop
      vertex  2.000000e+000 -1.000000e+001  1.000000e+001
      vertex  0.000000e+000  1.000000e+001  1.000000e+001
      vertex  0.000000e+000 -1.000000e+001  1.000000e+001
    endloop
  endfacet
endsolid CATIA STL
