solid CATIA STL
  facet normal  0.000000e+000  0.000000e+000  1.000000e+000
    outer loop
      vertex -7.000000e+000 -1.000000e+001  2.000000e+000
      vertex -5.166726e+000 -1.166726e+000  2.000000e+000
      vertex -5.650000e+000  9.348139e-016  2.000000e+000
    endloop
  endfacet
  facet normal  0.000000e+000  0.000000e+000  1.000000e+000
    outer loop
      vertex -7.000000e+000 -1.000000e+001  2.000000e+000
      vertex -4.000000e+000 -1.650000e+000  2.000000e+000
      vertex -5.166726e+000 -1.166726e+000  2.000000e+000
    endloop
  endfacet
  facet normal  0.000000e+000  0.000000e+000  1.000000e+000
    outer loop
      vertex -7.000000e+000  1.000000e+001  2.000000e+000
      vertex -7.000000e+000 -1.000000e+001  2.000000e+000
      vertex -5.650000e+000  9.348139e-016  2.000000e+000
    endloop
  endfacet
  facet normal  0.000000e+000  -0.000000e+000  1.000000e+000
    outer loop
      vertex -7.000000e+000  1.000000e+001  2.000000e+000
      vertex -5.650000e+000  9.348139e-016  2.000000e+000
      vertex -5.166726e+000  1.166726e+000  2.000000e+000
    endloop
  endfacet
  facet normal  0.000000e+000  -0.000000e+000  1.000000e+000
    outer loop
      vertex -7.000000e+000  1.000000e+001  2.000000e+000
      vertex -5.166726e+000  1.166726e+000  2.000000e+000
      vertex -4.000000e+000  1.650000e+000  2.000000e+000
    endloop
  endfacet
  facet normal  0.000000e+000  -0.000000e+000  9.999999e-001
    outer loop
      vertex -7.000000e+000  1.000000e+001  2.000000e+000
      vertex -4.000000e+000  1.650000e+000  2.000000e+000
      vertex  0.000000e+000  1.000000e+001  2.000000e+000
    endloop
  endfacet
  facet normal  0.000000e+000  0.000000e+000  1.000000e+000
    outer loop
      vertex  0.000000e+000 -1.000000e+001  2.000000e+000
      vertex -2.350000e+000  0.000000e+000  2.000000e+000
      vertex -2.833274e+000 -1.166726e+000  2.000000e+000
    endloop
  endfacet
  facet normal  0.000000e+000  0.000000e+000  9.999999e-001
    outer loop
      vertex  0.000000e+000 -1.000000e+001  2.000000e+000
      vertex -2.833274e+000 -1.166726e+000  2.000000e+000
      vertex -4.000000e+000 -1.650000e+000  2.000000e+000
    endloop
  endfacet
  facet normal  0.000000e+000  0.000000e+000  9.999999e-001
    outer loop
      vertex  0.000000e+000 -1.000000e+001  2.000000e+000
      vertex -4.000000e+000 -1.650000e+000  2.000000e+000
      vertex -7.000000e+000 -1.000000e+001  2.000000e+000
    endloop
  endfacet
  facet normal  -0.000000e+000  0.000000e+000  9.999999e-001
    outer loop
      vertex  0.000000e+000  1.000000e+001  2.000000e+000
      vertex -4.000000e+000  1.650000e+000  2.000000e+000
      vertex -2.833274e+000  1.166726e+000  2.000000e+000
    endloop
  endfacet
  facet normal  -0.000000e+000  0.000000e+000  1.000000e+000
    outer loop
      vertex  0.000000e+000  1.000000e+001  2.000000e+000
      vertex -2.833274e+000  1.166726e+000  2.000000e+000
      vertex -2.350000e+000  0.000000e+000  2.000000e+000
    endloop
  endfacet
  facet normal  -0.000000e+000  0.000000e+000  9.999999e-001
    outer loop
      vertex  0.000000e+000  1.000000e+001  2.000000e+000
      vertex -2.350000e+000  0.000000e+000  2.000000e+000
      vertex  0.000000e+000 -1.000000e+001  2.000000e+000
    endloop
  endfacet
  facet normal  0.000000e+000  -0.000000e+000 -1.000000e+000
    outer loop
      vertex -7.000000e+000 -1.000000e+001  0.000000e+000
      vertex -5.650000e+000  2.020667e-016  0.000000e+000
      vertex -5.166726e+000 -1.166726e+000  0.000000e+000
    endloop
  endfacet
  facet normal  0.000000e+000  -0.000000e+000 -1.000000e+000
    outer loop
      vertex -7.000000e+000 -1.000000e+001  0.000000e+000
      vertex -5.166726e+000 -1.166726e+000  0.000000e+000
      vertex -4.000000e+000 -1.650000e+000  0.000000e+000
    endloop
  endfacet
  facet normal  0.000000e+000  -0.000000e+000 -1.000000e+000
    outer loop
      vertex -7.000000e+000 -1.000000e+001  0.000000e+000
      vertex -4.000000e+000 -1.650000e+000  0.000000e+000
      vertex  2.000000e+000 -1.000000e+001  0.000000e+000
    endloop
  endfacet
  facet normal  -0.000000e+000  0.000000e+000 -1.000000e+000
    outer loop
      vertex -7.000000e+000  1.000000e+001  0.000000e+000
      vertex  2.000000e+000  1.000000e+001  0.000000e+000
      vertex -2.833274e+000  1.166726e+000  0.000000e+000
    endloop
  endfacet
  facet normal  0.000000e+000  0.000000e+000 -1.000000e+000
    outer loop
      vertex -7.000000e+000  1.000000e+001  0.000000e+000
      vertex -2.833274e+000  1.166726e+000  0.000000e+000
      vertex -4.000000e+000  1.650000e+000  0.000000e+000
    endloop
  endfacet
  facet normal  -0.000000e+000  0.000000e+000 -1.000000e+000
    outer loop
      vertex -7.000000e+000  1.000000e+001  0.000000e+000
      vertex -4.000000e+000  1.650000e+000  0.000000e+000
      vertex -5.166726e+000  1.166726e+000  0.000000e+000
    endloop
  endfacet
  facet normal  -0.000000e+000  0.000000e+000 -1.000000e+000
    outer loop
      vertex -7.000000e+000  1.000000e+001  0.000000e+000
      vertex -5.166726e+000  1.166726e+000  0.000000e+000
      vertex -5.650000e+000  2.020667e-016  0.000000e+000
    endloop
  endfacet
  facet normal  -0.000000e+000  0.000000e+000 -1.000000e+000
    outer loop
      vertex -7.000000e+000  1.000000e+001  0.000000e+000
      vertex -5.650000e+000  2.020667e-016  0.000000e+000
      vertex -7.000000e+000 -1.000000e+001  0.000000e+000
    endloop
  endfacet
  facet normal  0.000000e+000  0.000000e+000 -9.999999e-001
    outer loop
      vertex  2.000000e+000 -1.000000e+001  0.000000e+000
      vertex -4.000000e+000 -1.650000e+000  0.000000e+000
      vertex -2.833274e+000 -1.166726e+000  0.000000e+000
    endloop
  endfacet
  facet normal  0.000000e+000  0.000000e+000 -1.000000e+000
    outer loop
      vertex  2.000000e+000 -1.000000e+001  0.000000e+000
      vertex -2.833274e+000 -1.166726e+000  0.000000e+000
      vertex -2.350000e+000  0.000000e+000  0.000000e+000
    endloop
  endfacet
  facet normal  0.000000e+000  0.000000e+000 -9.999999e-001
    outer loop
      vertex  2.000000e+000 -1.000000e+001  0.000000e+000
      vertex -2.350000e+000  0.000000e+000  0.000000e+000
      vertex -2.833274e+000  1.166726e+000  0.000000e+000
    endloop
  endfacet
  facet normal  0.000000e+000  0.000000e+000 -1.000000e+000
    outer loop
      vertex  2.000000e+000 -1.000000e+001  0.000000e+000
      vertex -2.833274e+000  1.166726e+000  0.000000e+000
      vertex  2.000000e+000  1.000000e+001  0.000000e+000
    endloop
  endfacet
  facet normal  3.826834e-001 -9.238796e-001  0.000000e+000
    outer loop
      vertex -4.000000e+000  1.650000e+000  0.000000e+000
      vertex -5.166726e+000  1.166726e+000  2.000000e+000
      vertex -5.166726e+000  1.166726e+000  0.000000e+000
    endloop
  endfacet
  facet normal  9.238795e-001 -3.826835e-001  0.000000e+000
    outer loop
      vertex -5.166726e+000  1.166726e+000  0.000000e+000
      vertex -5.166726e+000  1.166726e+000  2.000000e+000
      vertex -5.650000e+000  9.348139e-016  2.000000e+000
    endloop
  endfacet
  facet normal  9.238795e-001 -3.826835e-001  1.402052e-016
    outer loop
      vertex -5.166726e+000  1.166726e+000  0.000000e+000
      vertex -5.650000e+000  9.348139e-016  2.000000e+000
      vertex -5.650000e+000  2.020667e-016  0.000000e+000
    endloop
  endfacet
  facet normal  3.826834e-001 -9.238796e-001  0.000000e+000
    outer loop
      vertex -5.166726e+000  1.166726e+000  2.000000e+000
      vertex -4.000000e+000  1.650000e+000  0.000000e+000
      vertex -4.000000e+000  1.650000e+000  2.000000e+000
    endloop
  endfacet
  facet normal -3.826834e-001 -9.238796e-001  -0.000000e+000
    outer loop
      vertex -4.000000e+000  1.650000e+000  2.000000e+000
      vertex -4.000000e+000  1.650000e+000  0.000000e+000
      vertex -2.833274e+000  1.166726e+000  0.000000e+000
    endloop
  endfacet
  facet normal -3.826834e-001 -9.238796e-001  0.000000e+000
    outer loop
      vertex -4.000000e+000  1.650000e+000  2.000000e+000
      vertex -2.833274e+000  1.166726e+000  0.000000e+000
      vertex -2.833274e+000  1.166726e+000  2.000000e+000
    endloop
  endfacet
  facet normal -9.238795e-001 -3.826835e-001  -0.000000e+000
    outer loop
      vertex -2.833274e+000  1.166726e+000  2.000000e+000
      vertex -2.833274e+000  1.166726e+000  0.000000e+000
      vertex -2.350000e+000  0.000000e+000  0.000000e+000
    endloop
  endfacet
  facet normal -9.238795e-001 -3.826835e-001  0.000000e+000
    outer loop
      vertex -2.833274e+000  1.166726e+000  2.000000e+000
      vertex -2.350000e+000  0.000000e+000  0.000000e+000
      vertex -2.350000e+000  0.000000e+000  2.000000e+000
    endloop
  endfacet
  facet normal -3.826834e-001  9.238796e-001  0.000000e+000
    outer loop
      vertex -4.000000e+000 -1.650000e+000  0.000000e+000
      vertex -2.833274e+000 -1.166726e+000  2.000000e+000
      vertex -2.833274e+000 -1.166726e+000  0.000000e+000
    endloop
  endfacet
  facet normal -9.238795e-001  3.826835e-001  0.000000e+000
    outer loop
      vertex -2.833274e+000 -1.166726e+000  0.000000e+000
      vertex -2.833274e+000 -1.166726e+000  2.000000e+000
      vertex -2.350000e+000  0.000000e+000  2.000000e+000
    endloop
  endfacet
  facet normal -9.238795e-001  3.826835e-001  0.000000e+000
    outer loop
      vertex -2.833274e+000 -1.166726e+000  0.000000e+000
      vertex -2.350000e+000  0.000000e+000  2.000000e+000
      vertex -2.350000e+000  0.000000e+000  0.000000e+000
    endloop
  endfacet
  facet normal -3.826834e-001  9.238796e-001  0.000000e+000
    outer loop
      vertex -2.833274e+000 -1.166726e+000  2.000000e+000
      vertex -4.000000e+000 -1.650000e+000  0.000000e+000
      vertex -4.000000e+000 -1.650000e+000  2.000000e+000
    endloop
  endfacet
  facet normal  3.826834e-001  9.238796e-001  0.000000e+000
    outer loop
      vertex -4.000000e+000 -1.650000e+000  2.000000e+000
      vertex -4.000000e+000 -1.650000e+000  0.000000e+000
      vertex -5.166726e+000 -1.166726e+000  0.000000e+000
    endloop
  endfacet
  facet normal  3.826834e-001  9.238796e-001  -0.000000e+000
    outer loop
      vertex -4.000000e+000 -1.650000e+000  2.000000e+000
      vertex -5.166726e+000 -1.166726e+000  0.000000e+000
      vertex -5.166726e+000 -1.166726e+000  2.000000e+000
    endloop
  endfacet
  facet normal  9.238795e-001  3.826835e-001  0.000000e+000
    outer loop
      vertex -5.166726e+000 -1.166726e+000  2.000000e+000
      vertex -5.166726e+000 -1.166726e+000  0.000000e+000
      vertex -5.650000e+000  2.020667e-016  0.000000e+000
    endloop
  endfacet
  facet normal  9.238795e-001  3.826835e-001 -1.402052e-016
    outer loop
      vertex -5.166726e+000 -1.166726e+000  2.000000e+000
      vertex -5.650000e+000  2.020667e-016  0.000000e+000
      vertex -5.650000e+000  9.348139e-016  2.000000e+000
    endloop
  endfacet
  facet normal  1.000000e+000  -0.000000e+000  0.000000e+000
    outer loop
      vertex  2.000000e+000  1.000000e+001  1.000000e+001
      vertex  2.000000e+000  4.800000e+000  8.700000e+000
      vertex  2.000000e+000  5.648528e+000  8.348528e+000
    endloop
  endfacet
  facet normal  1.000000e+000  0.000000e+000  0.000000e+000
    outer loop
      vertex  2.000000e+000 -1.000000e+001  1.000000e+001
      vertex  2.000000e+000 -1.000000e+001  0.000000e+000
      vertex  2.000000e+000 -5.648528e+000  8.348528e+000
    endloop
  endfacet
  facet normal  1.000000e+000  0.000000e+000  -0.000000e+000
    outer loop
      vertex  2.000000e+000 -1.000000e+001  1.000000e+001
      vertex  2.000000e+000 -5.648528e+000  8.348528e+000
      vertex  2.000000e+000 -4.800000e+000  8.700000e+000
    endloop
  endfacet
  facet normal  1.000000e+000  0.000000e+000  -0.000000e+000
    outer loop
      vertex  2.000000e+000 -1.000000e+001  1.000000e+001
      vertex  2.000000e+000 -4.800000e+000  8.700000e+000
      vertex  2.000000e+000  4.800000e+000  8.700000e+000
    endloop
  endfacet
  facet normal  1.000000e+000  0.000000e+000  -0.000000e+000
    outer loop
      vertex  2.000000e+000 -1.000000e+001  1.000000e+001
      vertex  2.000000e+000  4.800000e+000  8.700000e+000
      vertex  2.000000e+000  1.000000e+001  1.000000e+001
    endloop
  endfacet
  facet normal  1.000000e+000  0.000000e+000  0.000000e+000
    outer loop
      vertex  2.000000e+000 -1.000000e+001  0.000000e+000
      vertex  2.000000e+000  1.000000e+001  0.000000e+000
      vertex  2.000000e+000  4.800000e+000  6.300000e+000
    endloop
  endfacet
  facet normal  9.999999e-001  0.000000e+000  0.000000e+000
    outer loop
      vertex  2.000000e+000 -1.000000e+001  0.000000e+000
      vertex  2.000000e+000  4.800000e+000  6.300000e+000
      vertex  2.000000e+000 -4.800000e+000  6.300000e+000
    endloop
  endfacet
  facet normal  1.000000e+000  0.000000e+000  0.000000e+000
    outer loop
      vertex  2.000000e+000 -1.000000e+001  0.000000e+000
      vertex  2.000000e+000 -4.800000e+000  6.300000e+000
      vertex  2.000000e+000 -5.648528e+000  6.651472e+000
    endloop
  endfacet
  facet normal  9.999999e-001  0.000000e+000  0.000000e+000
    outer loop
      vertex  2.000000e+000 -1.000000e+001  0.000000e+000
      vertex  2.000000e+000 -5.648528e+000  6.651472e+000
      vertex  2.000000e+000 -6.000000e+000  7.500000e+000
    endloop
  endfacet
  facet normal  1.000000e+000  0.000000e+000  -0.000000e+000
    outer loop
      vertex  2.000000e+000 -1.000000e+001  0.000000e+000
      vertex  2.000000e+000 -6.000000e+000  7.500000e+000
      vertex  2.000000e+000 -5.648528e+000  8.348528e+000
    endloop
  endfacet
  facet normal  1.000000e+000  0.000000e+000  0.000000e+000
    outer loop
      vertex  2.000000e+000  1.000000e+001  0.000000e+000
      vertex  2.000000e+000  1.000000e+001  1.000000e+001
      vertex  2.000000e+000  5.648528e+000  8.348528e+000
    endloop
  endfacet
  facet normal  1.000000e+000  0.000000e+000  0.000000e+000
    outer loop
      vertex  2.000000e+000  1.000000e+001  0.000000e+000
      vertex  2.000000e+000  5.648528e+000  8.348528e+000
      vertex  2.000000e+000  6.000000e+000  7.500000e+000
    endloop
  endfacet
  facet normal  9.999999e-001  0.000000e+000  0.000000e+000
    outer loop
      vertex  2.000000e+000  1.000000e+001  0.000000e+000
      vertex  2.000000e+000  6.000000e+000  7.500000e+000
      vertex  2.000000e+000  5.648528e+000  6.651472e+000
    endloop
  endfacet
  facet normal  1.000000e+000  0.000000e+000  0.000000e+000
    outer loop
      vertex  2.000000e+000  1.000000e+001  0.000000e+000
      vertex  2.000000e+000  5.648528e+000  6.651472e+000
      vertex  2.000000e+000  4.800000e+000  6.300000e+000
    endloop
  endfacet
  facet normal  1.000000e+000  -0.000000e+000  0.000000e+000
    outer loop
      vertex  2.000000e+000  4.800000e+000  8.700000e+000
      vertex  2.000000e+000 -4.800000e+000  8.700000e+000
      vertex  2.000000e+000  3.951472e+000  8.348528e+000
    endloop
  endfacet
  facet normal  1.000000e+000  0.000000e+000  0.000000e+000
    outer loop
      vertex  2.000000e+000  3.951472e+000  8.348528e+000
      vertex  2.000000e+000 -4.800000e+000  8.700000e+000
      vertex  2.000000e+000 -3.951472e+000  8.348528e+000
    endloop
  endfacet
  facet normal  1.000000e+000  -0.000000e+000  0.000000e+000
    outer loop
      vertex  2.000000e+000  3.951472e+000  8.348528e+000
      vertex  2.000000e+000 -3.951472e+000  8.348528e+000
      vertex  2.000000e+000  3.600000e+000  7.500000e+000
    endloop
  endfacet
  facet normal  1.000000e+000  0.000000e+000  0.000000e+000
    outer loop
      vertex  2.000000e+000  3.600000e+000  7.500000e+000
      vertex  2.000000e+000 -3.951472e+000  8.348528e+000
      vertex  2.000000e+000 -3.600000e+000  7.500000e+000
    endloop
  endfacet
  facet normal  1.000000e+000  -0.000000e+000  0.000000e+000
    outer loop
      vertex  2.000000e+000  3.600000e+000  7.500000e+000
      vertex  2.000000e+000 -3.600000e+000  7.500000e+000
      vertex  2.000000e+000  3.951472e+000  6.651472e+000
    endloop
  endfacet
  facet normal  1.000000e+000  0.000000e+000  0.000000e+000
    outer loop
      vertex  2.000000e+000  3.951472e+000  6.651472e+000
      vertex  2.000000e+000 -3.600000e+000  7.500000e+000
      vertex  2.000000e+000 -3.951472e+000  6.651472e+000
    endloop
  endfacet
  facet normal  1.000000e+000  -0.000000e+000  0.000000e+000
    outer loop
      vertex  2.000000e+000  3.951472e+000  6.651472e+000
      vertex  2.000000e+000 -3.951472e+000  6.651472e+000
      vertex  2.000000e+000  4.800000e+000  6.300000e+000
    endloop
  endfacet
  facet normal  1.000000e+000  0.000000e+000  0.000000e+000
    outer loop
      vertex  2.000000e+000  4.800000e+000  6.300000e+000
      vertex  2.000000e+000 -3.951472e+000  6.651472e+000
      vertex  2.000000e+000 -4.800000e+000  6.300000e+000
    endloop
  endfacet
  facet normal -1.000000e+000  0.000000e+000  0.000000e+000
    outer loop
      vertex -7.000000e+000  1.000000e+001  0.000000e+000
      vertex -7.000000e+000 -1.000000e+001  0.000000e+000
      vertex -7.000000e+000  1.000000e+001  2.000000e+000
    endloop
  endfacet
  facet normal -1.000000e+000  -0.000000e+000  0.000000e+000
    outer loop
      vertex -7.000000e+000  1.000000e+001  2.000000e+000
      vertex -7.000000e+000 -1.000000e+001  0.000000e+000
      vertex -7.000000e+000 -1.000000e+001  2.000000e+000
    endloop
  endfacet
  facet normal  0.000000e+000  1.000000e+000  0.000000e+000
    outer loop
      vertex  0.000000e+000  1.000000e+001  1.000000e+001
      vertex  2.000000e+000  1.000000e+001  1.000000e+001
      vertex  0.000000e+000  1.000000e+001  2.000000e+000
    endloop
  endfacet
  facet normal  -0.000000e+000  1.000000e+000  0.000000e+000
    outer loop
      vertex  0.000000e+000  1.000000e+001  2.000000e+000
      vertex  2.000000e+000  1.000000e+001  1.000000e+001
      vertex  2.000000e+000  1.000000e+001  0.000000e+000
    endloop
  endfacet
  facet normal  0.000000e+000  1.000000e+000  0.000000e+000
    outer loop
      vertex  0.000000e+000  1.000000e+001  2.000000e+000
      vertex  2.000000e+000  1.000000e+001  0.000000e+000
      vertex -7.000000e+000  1.000000e+001  2.000000e+000
    endloop
  endfacet
  facet normal  0.000000e+000  1.000000e+000  0.000000e+000
    outer loop
      vertex -7.000000e+000  1.000000e+001  2.000000e+000
      vertex  2.000000e+000  1.000000e+001  0.000000e+000
      vertex -7.000000e+000  1.000000e+001  0.000000e+000
    endloop
  endfacet
  facet normal  0.000000e+000 -1.000000e+000  0.000000e+000
    outer loop
      vertex  2.000000e+000 -1.000000e+001  1.000000e+001
      vertex  0.000000e+000 -1.000000e+001  1.000000e+001
      vertex  2.000000e+000 -1.000000e+001  0.000000e+000
    endloop
  endfacet
  facet normal  0.000000e+000 -1.000000e+000  0.000000e+000
    outer loop
      vertex  2.000000e+000 -1.000000e+001  0.000000e+000
      vertex  0.000000e+000 -1.000000e+001  1.000000e+001
      vertex  0.000000e+000 -1.000000e+001  2.000000e+000
    endloop
  endfacet
  facet normal  0.000000e+000 -1.000000e+000  -0.000000e+000
    outer loop
      vertex  2.000000e+000 -1.000000e+001  0.000000e+000
      vertex  0.000000e+000 -1.000000e+001  2.000000e+000
      vertex -7.000000e+000 -1.000000e+001  0.000000e+000
    endloop
  endfacet
  facet normal  0.000000e+000 -1.000000e+000  0.000000e+000
    outer loop
      vertex -7.000000e+000 -1.000000e+001  0.000000e+000
      vertex  0.000000e+000 -1.000000e+001  2.000000e+000
      vertex -7.000000e+000 -1.000000e+001  2.000000e+000
    endloop
  endfacet
  facet normal -1.000000e+000  0.000000e+000  0.000000e+000
    outer loop
      vertex  0.000000e+000  5.648528e+000  8.348528e+000
      vertex  0.000000e+000  4.800000e+000  8.700000e+000
      vertex  0.000000e+000  1.000000e+001  1.000000e+001
    endloop
  endfacet
  facet normal -1.000000e+000  -0.000000e+000  0.000000e+000
    outer loop
      vertex  0.000000e+000 -1.000000e+001  1.000000e+001
      vertex  0.000000e+000  1.000000e+001  1.000000e+001
      vertex  0.000000e+000  4.800000e+000  8.700000e+000
    endloop
  endfacet
  facet normal -1.000000e+000  0.000000e+000  0.000000e+000
    outer loop
      vertex  0.000000e+000 -1.000000e+001  1.000000e+001
      vertex  0.000000e+000  4.800000e+000  8.700000e+000
      vertex  0.000000e+000 -4.800000e+000  8.700000e+000
    endloop
  endfacet
  facet normal -1.000000e+000  -0.000000e+000  0.000000e+000
    outer loop
      vertex  0.000000e+000 -1.000000e+001  1.000000e+001
      vertex  0.000000e+000 -4.800000e+000  8.700000e+000
      vertex  0.000000e+000 -5.648528e+000  8.348528e+000
    endloop
  endfacet
  facet normal -1.000000e+000  -0.000000e+000  0.000000e+000
    outer loop
      vertex  0.000000e+000 -1.000000e+001  1.000000e+001
      vertex  0.000000e+000 -5.648528e+000  8.348528e+000
      vertex  0.000000e+000 -1.000000e+001  2.000000e+000
    endloop
  endfacet
  facet normal -9.999999e-001  0.000000e+000  0.000000e+000
    outer loop
      vertex  0.000000e+000 -1.000000e+001  2.000000e+000
      vertex  0.000000e+000 -5.648528e+000  8.348528e+000
      vertex  0.000000e+000 -6.000000e+000  7.500000e+000
    endloop
  endfacet
  facet normal -1.000000e+000  0.000000e+000  -0.000000e+000
    outer loop
      vertex  0.000000e+000 -1.000000e+001  2.000000e+000
      vertex  0.000000e+000 -6.000000e+000  7.500000e+000
      vertex  0.000000e+000 -5.648528e+000  6.651472e+000
    endloop
  endfacet
  facet normal -1.000000e+000  0.000000e+000  -0.000000e+000
    outer loop
      vertex  0.000000e+000 -1.000000e+001  2.000000e+000
      vertex  0.000000e+000 -5.648528e+000  6.651472e+000
      vertex  0.000000e+000 -4.800000e+000  6.300000e+000
    endloop
  endfacet
  facet normal -1.000000e+000  0.000000e+000  -0.000000e+000
    outer loop
      vertex  0.000000e+000 -1.000000e+001  2.000000e+000
      vertex  0.000000e+000 -4.800000e+000  6.300000e+000
      vertex  0.000000e+000  4.800000e+000  6.300000e+000
    endloop
  endfacet
  facet normal -1.000000e+000  0.000000e+000  -0.000000e+000
    outer loop
      vertex  0.000000e+000 -1.000000e+001  2.000000e+000
      vertex  0.000000e+000  4.800000e+000  6.300000e+000
      vertex  0.000000e+000  1.000000e+001  2.000000e+000
    endloop
  endfacet
  facet normal -1.000000e+000  0.000000e+000  0.000000e+000
    outer loop
      vertex  0.000000e+000  1.000000e+001  2.000000e+000
      vertex  0.000000e+000  4.800000e+000  6.300000e+000
      vertex  0.000000e+000  5.648528e+000  6.651472e+000
    endloop
  endfacet
  facet normal -1.000000e+000  0.000000e+000  0.000000e+000
    outer loop
      vertex  0.000000e+000  1.000000e+001  2.000000e+000
      vertex  0.000000e+000  5.648528e+000  6.651472e+000
      vertex  0.000000e+000  6.000000e+000  7.500000e+000
    endloop
  endfacet
  facet normal -9.999999e-001  0.000000e+000  0.000000e+000
    outer loop
      vertex  0.000000e+000  1.000000e+001  2.000000e+000
      vertex  0.000000e+000  6.000000e+000  7.500000e+000
      vertex  0.000000e+000  5.648528e+000  8.348528e+000
    endloop
  endfacet
  facet normal -1.000000e+000  0.000000e+000  0.000000e+000
    outer loop
      vertex  0.000000e+000  1.000000e+001  2.000000e+000
      vertex  0.000000e+000  5.648528e+000  8.348528e+000
      vertex  0.000000e+000  1.000000e+001  1.000000e+001
    endloop
  endfacet
  facet normal -1.000000e+000  0.000000e+000  0.000000e+000
    outer loop
      vertex  0.000000e+000  3.600000e+000  7.500000e+000
      vertex  0.000000e+000 -3.951472e+000  8.348528e+000
      vertex  0.000000e+000  3.951472e+000  8.348528e+000
    endloop
  endfacet
  facet normal -1.000000e+000  0.000000e+000  0.000000e+000
    outer loop
      vertex  0.000000e+000  3.951472e+000  8.348528e+000
      vertex  0.000000e+000 -3.951472e+000  8.348528e+000
      vertex  0.000000e+000 -4.800000e+000  8.700000e+000
    endloop
  endfacet
  facet normal -1.000000e+000  0.000000e+000  0.000000e+000
    outer loop
      vertex  0.000000e+000  3.951472e+000  8.348528e+000
      vertex  0.000000e+000 -4.800000e+000  8.700000e+000
      vertex  0.000000e+000  4.800000e+000  8.700000e+000
    endloop
  endfacet
  facet normal -1.000000e+000  0.000000e+000  0.000000e+000
    outer loop
      vertex  0.000000e+000 -3.951472e+000  8.348528e+000
      vertex  0.000000e+000  3.600000e+000  7.500000e+000
      vertex  0.000000e+000 -3.600000e+000  7.500000e+000
    endloop
  endfacet
  facet normal -1.000000e+000  0.000000e+000  0.000000e+000
    outer loop
      vertex  0.000000e+000 -3.600000e+000  7.500000e+000
      vertex  0.000000e+000  3.600000e+000  7.500000e+000
      vertex  0.000000e+000  3.951472e+000  6.651472e+000
    endloop
  endfacet
  facet normal -1.000000e+000  0.000000e+000  0.000000e+000
    outer loop
      vertex  0.000000e+000 -3.600000e+000  7.500000e+000
      vertex  0.000000e+000  3.951472e+000  6.651472e+000
      vertex  0.000000e+000 -3.951472e+000  6.651472e+000
    endloop
  endfacet
  facet normal -1.000000e+000  0.000000e+000  0.000000e+000
    outer loop
      vertex  0.000000e+000 -3.951472e+000  6.651472e+000
      vertex  0.000000e+000  3.951472e+000  6.651472e+000
      vertex  0.000000e+000  4.800000e+000  6.300000e+000
    endloop
  endfacet
  facet normal -1.000000e+000  0.000000e+000  0.000000e+000
    outer loop
      vertex  0.000000e+000 -3.951472e+000  6.651472e+000
      vertex  0.000000e+000  4.800000e+000  6.300000e+000
      vertex  0.000000e+000 -4.800000e+000  6.300000e+000
    endloop
  endfacet
  facet normal  0.000000e+000 -3.826834e-001  9.238796e-001
    outer loop
      vertex  0.000000e+000 -4.800000e+000  6.300000e+000
      vertex  2.000000e+000 -3.951472e+000  6.651472e+000
      vertex  0.000000e+000 -3.951472e+000  6.651472e+000
    endloop
  endfacet
  facet normal  0.000000e+000 -9.238794e-001  3.826835e-001
    outer loop
      vertex  0.000000e+000 -3.951472e+000  6.651472e+000
      vertex  2.000000e+000 -3.951472e+000  6.651472e+000
      vertex  2.000000e+000 -3.600000e+000  7.500000e+000
    endloop
  endfacet
  facet normal  0.000000e+000 -9.238794e-001  3.826835e-001
    outer loop
      vertex  0.000000e+000 -3.951472e+000  6.651472e+000
      vertex  2.000000e+000 -3.600000e+000  7.500000e+000
      vertex  0.000000e+000 -3.600000e+000  7.500000e+000
    endloop
  endfacet
  facet normal  0.000000e+000 -3.826834e-001  9.238796e-001
    outer loop
      vertex  2.000000e+000 -3.951472e+000  6.651472e+000
      vertex  0.000000e+000 -4.800000e+000  6.300000e+000
      vertex  2.000000e+000 -4.800000e+000  6.300000e+000
    endloop
  endfacet
  facet normal  0.000000e+000  3.826835e-001  9.238794e-001
    outer loop
      vertex  2.000000e+000 -4.800000e+000  6.300000e+000
      vertex  0.000000e+000 -4.800000e+000  6.300000e+000
      vertex  0.000000e+000 -5.648528e+000  6.651472e+000
    endloop
  endfacet
  facet normal  -0.000000e+000  3.826835e-001  9.238794e-001
    outer loop
      vertex  2.000000e+000 -4.800000e+000  6.300000e+000
      vertex  0.000000e+000 -5.648528e+000  6.651472e+000
      vertex  2.000000e+000 -5.648528e+000  6.651472e+000
    endloop
  endfacet
  facet normal  0.000000e+000  9.238794e-001  3.826835e-001
    outer loop
      vertex  2.000000e+000 -5.648528e+000  6.651472e+000
      vertex  0.000000e+000 -5.648528e+000  6.651472e+000
      vertex  0.000000e+000 -6.000000e+000  7.500000e+000
    endloop
  endfacet
  facet normal  -0.000000e+000  9.238794e-001  3.826835e-001
    outer loop
      vertex  2.000000e+000 -5.648528e+000  6.651472e+000
      vertex  0.000000e+000 -6.000000e+000  7.500000e+000
      vertex  2.000000e+000 -6.000000e+000  7.500000e+000
    endloop
  endfacet
  facet normal  0.000000e+000  3.826835e-001 -9.238794e-001
    outer loop
      vertex  0.000000e+000 -4.800000e+000  8.700000e+000
      vertex  2.000000e+000 -5.648528e+000  8.348528e+000
      vertex  0.000000e+000 -5.648528e+000  8.348528e+000
    endloop
  endfacet
  facet normal  0.000000e+000  9.238794e-001 -3.826835e-001
    outer loop
      vertex  0.000000e+000 -5.648528e+000  8.348528e+000
      vertex  2.000000e+000 -5.648528e+000  8.348528e+000
      vertex  2.000000e+000 -6.000000e+000  7.500000e+000
    endloop
  endfacet
  facet normal  0.000000e+000  9.238794e-001 -3.826835e-001
    outer loop
      vertex  0.000000e+000 -5.648528e+000  8.348528e+000
      vertex  2.000000e+000 -6.000000e+000  7.500000e+000
      vertex  0.000000e+000 -6.000000e+000  7.500000e+000
    endloop
  endfacet
  facet normal  0.000000e+000  3.826835e-001 -9.238794e-001
    outer loop
      vertex  2.000000e+000 -5.648528e+000  8.348528e+000
      vertex  0.000000e+000 -4.800000e+000  8.700000e+000
      vertex  2.000000e+000 -4.800000e+000  8.700000e+000
    endloop
  endfacet
  facet normal  -0.000000e+000 -3.826834e-001 -9.238796e-001
    outer loop
      vertex  2.000000e+000 -4.800000e+000  8.700000e+000
      vertex  0.000000e+000 -4.800000e+000  8.700000e+000
      vertex  0.000000e+000 -3.951472e+000  8.348528e+000
    endloop
  endfacet
  facet normal  0.000000e+000 -3.826834e-001 -9.238796e-001
    outer loop
      vertex  2.000000e+000 -4.800000e+000  8.700000e+000
      vertex  0.000000e+000 -3.951472e+000  8.348528e+000
      vertex  2.000000e+000 -3.951472e+000  8.348528e+000
    endloop
  endfacet
  facet normal  -0.000000e+000 -9.238794e-001 -3.826835e-001
    outer loop
      vertex  2.000000e+000 -3.951472e+000  8.348528e+000
      vertex  0.000000e+000 -3.951472e+000  8.348528e+000
      vertex  0.000000e+000 -3.600000e+000  7.500000e+000
    endloop
  endfacet
  facet normal  0.000000e+000 -9.238794e-001 -3.826835e-001
    outer loop
      vertex  2.000000e+000 -3.951472e+000  8.348528e+000
      vertex  0.000000e+000 -3.600000e+000  7.500000e+000
      vertex  2.000000e+000 -3.600000e+000  7.500000e+000
    endloop
  endfacet
  facet normal  0.000000e+000  3.826834e-001 -9.238796e-001
    outer loop
      vertex  0.000000e+000  4.800000e+000  8.700000e+000
      vertex  2.000000e+000  3.951472e+000  8.348528e+000
      vertex  0.000000e+000  3.951472e+000  8.348528e+000
    endloop
  endfacet
  facet normal  0.000000e+000  9.238794e-001 -3.826835e-001
    outer loop
      vertex  0.000000e+000  3.951472e+000  8.348528e+000
      vertex  2.000000e+000  3.951472e+000  8.348528e+000
      vertex  2.000000e+000  3.600000e+000  7.500000e+000
    endloop
  endfacet
  facet normal  0.000000e+000  9.238794e-001 -3.826835e-001
    outer loop
      vertex  0.000000e+000  3.951472e+000  8.348528e+000
      vertex  2.000000e+000  3.600000e+000  7.500000e+000
      vertex  0.000000e+000  3.600000e+000  7.500000e+000
    endloop
  endfacet
  facet normal  0.000000e+000  3.826834e-001 -9.238796e-001
    outer loop
      vertex  2.000000e+000  3.951472e+000  8.348528e+000
      vertex  0.000000e+000  4.800000e+000  8.700000e+000
      vertex  2.000000e+000  4.800000e+000  8.700000e+000
    endloop
  endfacet
  facet normal  -0.000000e+000 -3.826835e-001 -9.238794e-001
    outer loop
      vertex  2.000000e+000  4.800000e+000  8.700000e+000
      vertex  0.000000e+000  4.800000e+000  8.700000e+000
      vertex  0.000000e+000  5.648528e+000  8.348528e+000
    endloop
  endfacet
  facet normal  0.000000e+000 -3.826835e-001 -9.238794e-001
    outer loop
      vertex  2.000000e+000  4.800000e+000  8.700000e+000
      vertex  0.000000e+000  5.648528e+000  8.348528e+000
      vertex  2.000000e+000  5.648528e+000  8.348528e+000
    endloop
  endfacet
  facet normal  -0.000000e+000 -9.238794e-001 -3.826835e-001
    outer loop
      vertex  2.000000e+000  5.648528e+000  8.348528e+000
      vertex  0.000000e+000  5.648528e+000  8.348528e+000
      vertex  0.000000e+000  6.000000e+000  7.500000e+000
    endloop
  endfacet
  facet normal  0.000000e+000 -9.238794e-001 -3.826835e-001
    outer loop
      vertex  2.000000e+000  5.648528e+000  8.348528e+000
      vertex  0.000000e+000  6.000000e+000  7.500000e+000
      vertex  2.000000e+000  6.000000e+000  7.500000e+000
    endloop
  endfacet
  facet normal  0.000000e+000 -3.826835e-001  9.238794e-001
    outer loop
      vertex  0.000000e+000  4.800000e+000  6.300000e+000
      vertex  2.000000e+000  5.648528e+000  6.651472e+000
      vertex  0.000000e+000  5.648528e+000  6.651472e+000
    endloop
  endfacet
  facet normal  0.000000e+000 -9.238794e-001  3.826835e-001
    outer loop
      vertex  0.000000e+000  5.648528e+000  6.651472e+000
      vertex  2.000000e+000  5.648528e+000  6.651472e+000
      vertex  2.000000e+000  6.000000e+000  7.500000e+000
    endloop
  endfacet
  facet normal  0.000000e+000 -9.238794e-001  3.826835e-001
    outer loop
      vertex  0.000000e+000  5.648528e+000  6.651472e+000
      vertex  2.000000e+000  6.000000e+000  7.500000e+000
      vertex  0.000000e+000  6.000000e+000  7.500000e+000
    endloop
  endfacet
  facet normal  0.000000e+000 -3.826835e-001  9.238794e-001
    outer loop
      vertex  2.000000e+000  5.648528e+000  6.651472e+000
      vertex  0.000000e+000  4.800000e+000  6.300000e+000
      vertex  2.000000e+000  4.800000e+000  6.300000e+000
    endloop
  endfacet
  facet normal  0.000000e+000  3.826834e-001  9.238796e-001
    outer loop
      vertex  2.000000e+000  4.800000e+000  6.300000e+000
      vertex  0.000000e+000  4.800000e+000  6.300000e+000
      vertex  0.000000e+000  3.951472e+000  6.651472e+000
    endloop
  endfacet
  facet normal  -0.000000e+000  3.826834e-001  9.238796e-001
    outer loop
      vertex  2.000000e+000  4.800000e+000  6.300000e+000
      vertex  0.000000e+000  3.951472e+000  6.651472e+000
      vertex  2.000000e+000  3.951472e+000  6.651472e+000
    endloop
  endfacet
  facet normal  0.000000e+000  9.238794e-001  3.826835e-001
    outer loop
      vertex  2.000000e+000  3.951472e+000  6.651472e+000
      vertex  0.000000e+000  3.951472e+000  6.651472e+000
      vertex  0.000000e+000  3.600000e+000  7.500000e+000
    endloop
  endfacet
  facet normal  -0.000000e+000  9.238794e-001  3.826835e-001
    outer loop
      vertex  2.000000e+000  3.951472e+000  6.651472e+000
      vertex  0.000000e+000  3.600000e+000  7.500000e+000
      vertex  2.000000e+000  3.600000e+000  7.500000e+000
    endloop
  endfacet
  facet normal  -0.000000e+000  0.000000e+000  1.000000e+000
    outer loop
      vertex  2.000000e+000  1.000000e+001  1.000000e+001
      vertex  0.000000e+000  1.000000e+001  1.000000e+001
      vertex  2.000000e+000 -1.000000e+001  1.000000e+001
    endloop
  endfacet
  facet normal  0.000000e+000  0.000000e+000  1.000000e+000
    outer loop
      vertex  2.000000e+000 -1.000000e+001  1.000000e+001
      vertex  0.000000e+000  1.000000e+001  1.000000e+001
      vertex  0.000000e+000 -1.000000e+001  1.000000e+001
    endloop
  endfacet
endsolid CATIA STL
